<svg width="40" height="40" viewBox="0 0 40 40" fill="none" xmlns="http://www.w3.org/2000/svg">
<path d="M11.25 5V8.75M28.75 5V8.75M5 31.25V12.5C5 10.4289 6.67893 8.75 8.75 8.75H31.25C33.3211 8.75 35 10.4289 35 12.5V31.25M5 31.25C5 33.3211 6.67893 35 8.75 35H31.25C33.3211 35 35 33.3211 35 31.25M5 31.25V18.75C5 16.6789 6.67893 15 8.75 15H31.25C33.3211 15 35 16.6789 35 18.75V31.25M20 21.25H20.0125V21.2625H20V21.25ZM20 25H20.0125V25.0125H20V25ZM20 28.75H20.0125V28.7625H20V28.75ZM16.25 25H16.2625V25.0125H16.25V25ZM16.25 28.75H16.2625V28.7625H16.25V28.75ZM12.5 25H12.5125V25.0125H12.5V25ZM12.5 28.75H12.5125V28.7625H12.5V28.75ZM23.75 21.25H23.7625V21.2625H23.75V21.25ZM23.75 25H23.7625V25.0125H23.75V25ZM23.75 28.75H23.7625V28.7625H23.75V28.75ZM27.5 21.25H27.5125V21.2625H27.5V21.25ZM27.5 25H27.5125V25.0125H27.5V25Z" stroke="#1F2937" stroke-width="1.5" stroke-linecap="round" stroke-linejoin="round"/>
</svg>
