<svg width="1438" height="522" viewBox="0 0 1438 522" fill="none" xmlns="http://www.w3.org/2000/svg">
<path d="M-106.297 -6.51851C-115.724 -1.85143 -125.59 2.81565 -135.017 8.2944C-141.155 11.744 -146.855 15.5994 -152.556 19.8606C-163.517 28.3831 -173.164 38.529 -179.521 51.9215C-174.918 52.7331 -170.094 53.9506 -165.052 55.3711C-163.079 55.9798 -161.106 56.5886 -158.913 57.1973C-152.994 46.6456 -144.663 38.529 -134.797 31.6298C-128.878 27.3686 -122.301 23.7161 -115.505 20.0636C-109.366 16.8169 -103.008 13.7731 -96.6504 10.7294C-79.1115 2.2069 -61.1342 -6.51851 -47.7608 -19.0993C-34.3874 -6.51851 -16.4101 2.2069 1.12877 10.7294C5.95195 12.9615 10.7751 15.3965 15.3791 17.6286C22.1754 13.9761 28.7525 10.1207 34.8911 6.06232C26.7793 1.59815 18.6676 -2.25726 10.5559 -6.11268C-9.61382 -15.8527 -28.6873 -25.1868 -39.4299 -39.391L-39.6491 -39.9998H-56.0918L-56.311 -39.5939C-66.8343 -25.3898 -86.1271 -16.2585 -106.297 -6.51851Z" fill="white" fill-opacity="0.42"/>
<path d="M87.2883 60.2409C86.8498 59.0234 86.4114 57.8059 85.973 56.7913C80.2728 42.9929 71.5033 32.2384 60.98 23.5129C55.4991 27.5713 49.5798 31.4267 43.6604 34.8763C52.8683 42.1813 60.5416 50.7038 65.584 61.8642C66.6802 64.0963 67.5571 66.3283 68.2149 68.7633C69.311 72.4158 70.4072 76.2713 71.0649 80.3296C71.9418 85.1996 72.3803 90.2725 72.3803 95.7513C72.3803 142.625 50.8952 154.8 23.71 163.12C24.3677 165.757 25.2446 168.598 25.9023 171.236C26.56 173.468 26.9985 175.497 27.6562 177.73C28.0947 178.947 28.314 180.367 28.7524 181.585C60.1031 172.454 93.2077 156.22 93.2077 95.7513C93.2077 88.4463 92.55 81.75 91.4539 75.4596C90.3577 75.6625 89.2615 75.8654 87.9461 75.8654C89.0423 75.6625 90.1384 75.4596 91.4539 75.4596C90.3577 70.1838 89.0422 65.1109 87.2883 60.2409Z" fill="white" fill-opacity="0.42"/>
<path d="M91.6729 56.1826C93.2075 60.4438 94.523 64.7051 95.6191 69.3721C96.0576 71.1984 96.4961 73.2276 96.9346 75.0538C109.65 74.4451 121.489 77.083 132.889 81.5471C139.905 84.1851 146.701 87.6346 153.278 91.2871C159.417 94.5338 165.336 98.1863 171.475 101.636C188.137 111.376 205.237 121.522 223.872 125.986C218.83 143.031 219.487 161.699 220.364 179.962C220.583 185.035 220.803 189.905 221.022 194.775C227.818 198.427 234.834 201.674 241.63 204.718C241.849 195.992 241.411 187.47 240.972 179.15C240.095 158.047 238.999 138.161 247.111 122.536L253.469 109.955L238.561 108.941C219.926 107.52 201.729 96.7659 182.656 85.6055C173.667 80.3296 164.24 74.8509 154.594 69.9809C148.236 66.9371 141.878 64.0963 135.082 61.8642C121.708 57.1972 107.239 54.7622 91.6729 56.1826Z" fill="white" fill-opacity="0.42"/>
<path d="M56.1568 87.0259C59.6646 84.9967 63.3916 83.3734 66.6801 81.953C65.3647 75.2567 63.6108 69.1693 61.1992 63.2847C56.1568 65.3138 51.1144 67.5459 45.8527 70.3868C-13.5602 102.245 -8.95619 138.77 -1.06371 169.613C-0.406 172.251 0.251694 174.889 0.909401 177.324C2.00558 180.976 2.88256 184.629 3.75951 188.078C8.14422 206.138 9.67886 222.371 -4.133 237.184L-23.4258 257.882L5.51336 252.809C24.5869 249.359 38.1795 256.867 51.7721 267.825C53.526 266.404 55.0606 264.984 56.8145 263.36C58.3492 262.143 59.6646 260.723 61.1992 259.505C62.5146 258.49 63.6109 257.273 64.9263 256.055C65.584 255.447 66.0224 255.041 66.6801 254.432C54.4029 244.286 40.3718 235.358 22.6137 233.126C30.287 216.081 27.6562 198.833 23.7099 182.6C23.4907 181.585 23.2714 180.57 22.833 179.556C22.1753 177.121 21.5176 174.889 20.8599 172.657C19.9829 169.816 19.3252 166.975 18.6675 164.134C11.652 136.538 9.67886 111.782 56.1568 87.0259Z" fill="white" fill-opacity="0.42"/>
<path d="M204.799 257.476C203.264 259.302 201.51 261.331 199.756 263.158C196.906 265.998 193.837 268.636 190.329 271.274C186.164 274.318 181.779 277.159 176.517 280C132.67 303.538 110.527 292.378 89.2616 274.521C87.0692 276.347 84.8769 278.376 82.6845 280.405C80.9306 282.029 79.1767 283.449 77.4228 285.073C76.3266 286.087 75.2305 286.899 74.3535 287.913C98.6887 308.408 130.259 326.873 186.821 296.639C193.618 292.986 199.537 289.131 204.799 285.073C209.403 281.623 213.349 277.97 217.076 274.318C217.953 273.303 218.83 272.492 219.707 271.477C229.792 259.911 235.273 247.533 238.561 234.952C231.984 232.517 225.626 229.676 219.268 226.835C216.857 237.59 212.691 247.939 204.799 257.476Z" fill="white" fill-opacity="0.42"/>
<path d="M241.63 332.961C241.411 326.265 240.753 319.771 239.438 313.278C237.026 300.291 232.203 287.507 222.995 275.535C219.926 278.782 216.418 282.232 212.691 285.275C211.157 286.696 209.622 287.913 207.868 289.131C214.664 299.074 218.172 309.828 219.707 321.192C220.584 328.091 221.022 335.193 220.803 342.498C220.803 348.991 220.365 355.687 220.145 362.384C219.268 380.646 218.391 399.517 223.653 416.36C205.237 420.824 187.918 430.767 171.256 440.71C166.652 443.347 162.048 445.985 157.663 448.623C157.663 455.928 158.102 463.03 158.759 470.132C166.871 465.871 174.764 461.407 182.437 456.74C201.73 445.377 219.926 434.622 238.342 433.405L253.25 432.39L246.892 419.809C239 404.185 239.876 384.299 240.753 363.195C241.63 353.455 242.069 343.31 241.63 332.961Z" fill="white" fill-opacity="0.42"/>
<path d="M70.6264 258.085C68.4341 259.911 66.4609 261.737 64.2685 263.563C61.4185 266.201 58.5684 268.839 55.4991 271.274C40.8103 283.855 26.56 293.189 5.51336 289.537L-23.4258 284.464L-4.133 305.161C8.58268 318.757 8.36346 333.367 4.85568 349.6C7.04804 350.209 9.2404 350.817 11.4328 351.426C13.4059 352.035 15.379 352.441 17.3521 353.05C19.106 353.455 20.6407 353.861 22.3945 354.47C23.2715 354.673 23.9291 354.876 24.8061 355.079C28.0946 340.063 29.6293 324.438 22.6137 309.22C42.3449 306.987 57.253 296.233 70.4072 284.667C71.2841 283.855 72.161 283.246 73.0379 282.435C75.0111 280.811 76.765 279.188 78.5188 277.362C80.7112 275.332 83.1228 273.303 85.3152 271.274C107.896 251.591 130.039 237.793 176.517 262.549C180.025 264.578 183.533 266.404 186.602 268.433C192.083 263.969 197.125 259.505 201.291 254.838C196.906 251.794 192.083 248.75 186.821 246.112C127.408 214.255 95.4001 236.17 70.6264 258.085Z" fill="white" fill-opacity="0.42"/>
<path d="M91.2343 467.089C88.6035 466.886 85.9727 466.277 83.3418 465.871C79.3956 465.06 75.2301 463.842 71.0646 462.422C66.2414 460.595 61.199 458.363 55.9374 455.725C12.0902 432.187 11.2133 409.055 17.3519 383.081C14.5018 382.27 11.6517 381.458 8.58245 380.849C6.17085 380.24 3.97853 379.632 1.56694 379.023C0.251528 378.617 -1.28318 378.211 -2.59859 377.805C-9.61413 407.634 -10.9295 442.13 45.4141 472.365C52.2104 476.017 58.7875 478.858 65.1453 481.09C70.6262 482.916 76.1071 484.54 81.3687 485.351C82.6841 485.554 83.9995 485.757 85.3149 485.96C101.1 488.192 115.569 486.569 128.943 482.713C127.847 476.22 127.408 469.727 126.97 463.233C116.227 466.683 104.169 468.509 91.2343 467.089Z" fill="white" fill-opacity="0.42"/>
<path d="M-56.3114 582.143L-47.7612 593.506L-39.211 582.143C-28.6877 567.938 -9.6142 558.807 10.7747 548.864C20.2019 544.197 30.0675 539.53 39.4946 534.051C45.6332 530.602 51.3334 526.746 57.0335 522.485C67.9953 513.963 77.6416 503.817 83.9995 490.424C79.3955 489.613 74.5724 488.395 69.53 486.975C67.5568 486.366 65.5837 485.757 63.3913 485.148C57.4719 495.7 49.141 503.817 39.2754 510.716C33.356 514.977 26.779 518.63 19.9827 522.282C13.8441 525.529 7.48621 528.573 1.12837 531.616C-16.4105 540.139 -34.3878 548.864 -47.7612 561.445C-61.1346 548.864 -79.1119 540.139 -96.6508 531.616C-101.474 529.384 -106.297 526.949 -110.901 524.717C-117.697 528.37 -124.274 532.225 -130.413 536.283C-122.301 540.748 -114.19 544.603 -106.078 548.458C-86.1274 558.807 -66.8347 567.938 -56.3114 582.143Z" fill="white" fill-opacity="0.42"/>
<path d="M23.7101 359.543C20.86 358.731 18.0099 358.123 15.3791 357.311C11.4329 356.296 7.70584 355.282 3.97884 354.267C-15.0947 348.788 -31.0988 341.889 -38.1144 323.221L-47.7608 297.45L-57.4071 323.221C-63.765 340.266 -77.5769 347.368 -94.458 352.644C-94.0195 354.673 -93.3618 356.702 -92.9233 358.731C-92.4849 360.557 -92.0464 362.384 -91.3887 364.21C-90.9502 365.833 -90.5118 367.254 -90.0733 368.877C-89.8541 369.689 -89.6348 370.298 -89.4156 371.109C-73.8498 366.239 -58.2841 359.746 -47.5415 346.353C-35.4836 360.963 -17.9447 367.66 -0.625069 372.53C0.471115 372.935 1.56729 373.138 2.66348 373.544C5.07507 374.153 7.70588 374.965 10.1175 375.573C13.1868 376.385 16.2561 377.197 19.1062 378.008C48.703 386.125 72.8189 397.082 72.8189 446.594C72.8189 450.45 72.5996 454.102 72.1612 457.552C79.1767 459.784 85.7538 461.407 92.3309 462.422C92.9886 457.349 93.4271 452.073 93.4271 446.391C92.9886 383.284 56.5954 368.674 23.7101 359.543Z" fill="white" fill-opacity="0.42"/>
<path d="M63.1726 -17.2732C57.2532 -6.72153 48.9222 1.39514 39.0566 8.2943C33.1373 12.5556 26.5602 16.2081 19.7639 19.8605C13.6253 23.1072 7.26746 26.151 0.909622 29.1947C-16.6292 37.7172 -34.6066 46.4426 -47.9799 59.0235C-61.3533 46.4426 -79.3307 37.7172 -96.8695 29.1947C-101.693 26.9626 -106.516 24.5276 -111.12 22.2956C-117.916 25.9481 -124.493 29.8035 -130.632 33.8618C-122.52 38.326 -114.408 42.1814 -106.297 46.0368C-86.127 55.7768 -67.0534 65.111 -56.3109 79.3151L-47.7607 90.6785L-39.2105 79.3151C-28.6872 65.111 -9.6137 55.9797 10.7752 46.0368C20.2024 41.3697 30.068 36.7026 39.4951 31.2239C45.6337 27.7743 51.3338 23.9189 57.034 19.6576C67.9958 11.1351 77.6421 0.989305 84 -12.4032C79.396 -13.2149 74.5729 -14.4324 69.5304 -15.8528C67.3381 -16.0557 65.3649 -16.6644 63.1726 -17.2732Z" fill="white" fill-opacity="0.42"/>
<path d="M447.055 6.67086L475.994 1.59794C495.067 -1.64872 508.66 5.65628 522.253 16.6138C524.006 15.1934 525.541 13.7729 527.295 12.1496C528.83 10.9321 530.145 9.51169 531.68 8.29419C532.995 7.07669 534.091 6.06211 535.407 4.84461C536.064 4.23586 536.503 3.83002 537.161 3.22128C524.883 -6.92456 510.852 -15.8529 493.094 -18.085C496.383 -25.39 497.917 -32.8979 498.137 -40.2029H477.528C477.09 -31.0716 474.24 -22.3462 466.567 -14.0266L447.055 6.67086Z" fill="white" fill-opacity="0.42"/>
<path d="M675.279 6.26492C673.745 8.09117 671.991 10.1203 670.237 11.9466C667.387 14.7874 664.318 17.4253 660.81 20.0633C656.644 23.107 652.259 25.9478 646.998 28.7887C603.151 52.327 581.008 41.1666 559.742 23.3099C557.55 25.1362 555.357 27.1653 553.165 29.1945C551.411 30.8178 549.657 32.2382 547.903 33.8616C546.807 34.8762 545.711 35.6878 544.834 36.7024C569.169 57.197 600.739 75.6624 657.302 45.4278C664.098 41.7753 670.018 37.9199 675.279 33.8616C679.883 30.412 683.829 26.7595 687.556 23.107C688.433 22.0924 689.31 21.2807 690.187 20.2662C700.272 8.69992 705.753 -3.678 709.042 -16.2588C702.465 -18.6938 696.107 -21.5347 689.749 -24.3755C687.337 -13.8238 683.172 -3.47508 675.279 6.26492Z" fill="white" fill-opacity="0.42"/>
<path d="M712.111 81.5472C711.892 74.851 711.234 68.3577 709.918 61.8643C707.507 48.8777 702.684 36.0939 693.476 24.1218C690.406 27.3685 686.899 30.8181 683.172 33.8618C681.637 35.2822 680.102 36.4997 678.349 37.7172C685.145 47.6602 688.653 58.4147 690.187 69.7781C691.064 76.6772 691.503 83.7793 691.283 91.0843C691.283 97.5776 690.845 104.274 690.626 110.97C689.749 129.233 688.872 148.104 694.133 164.946C675.718 169.41 658.398 179.353 641.736 189.296C637.132 191.934 632.528 194.572 628.144 197.21C628.144 204.515 628.582 211.617 629.24 218.719C637.351 214.458 645.244 209.993 652.917 205.326C672.21 193.963 690.406 183.208 708.822 181.991L723.73 180.976L717.373 168.396C709.48 152.771 710.357 132.885 711.234 111.782C712.111 102.042 712.549 91.896 712.111 81.5472Z" fill="white" fill-opacity="0.42"/>
<path d="M525.98 19.8604C511.291 32.4412 497.04 41.7754 475.994 38.1229L447.055 33.05L466.347 53.7475C479.063 67.3429 478.844 81.9529 475.336 98.1862C477.528 98.7949 479.721 99.4037 481.913 100.012C483.886 100.621 485.859 101.027 487.833 101.636C489.586 102.042 491.121 102.447 492.875 103.056C493.752 103.259 494.41 103.462 495.287 103.665C498.575 88.6491 500.11 73.0245 493.094 57.8058C512.825 55.5737 527.733 44.8191 540.888 33.2529C541.765 32.4412 542.642 31.8325 543.518 31.0208C545.492 29.3975 547.245 27.7741 548.999 25.9479C551.192 23.9187 553.603 21.8896 555.796 19.8604C578.377 0.177483 600.52 -13.6208 646.998 11.135C650.505 13.1641 654.013 14.9904 657.083 17.0196C662.563 12.5554 667.606 8.09123 671.771 3.42415C667.387 0.380398 662.563 -2.66335 657.302 -5.30126C597.889 -37.1592 565.881 -15.0413 540.888 6.67081C538.695 8.49706 536.722 10.3233 534.53 12.1496C531.68 14.7875 528.83 17.4254 525.98 19.8604Z" fill="white" fill-opacity="0.42"/>
<path d="M479.283 129.03C476.871 128.421 474.679 127.812 472.267 127.203C470.952 126.798 469.417 126.392 468.102 125.986C461.086 155.815 459.771 190.31 516.114 220.545C522.911 224.197 529.488 227.038 535.846 229.27C541.326 231.097 546.807 232.72 552.069 233.532C553.384 233.735 554.7 233.937 556.015 234.14C571.8 236.372 586.27 234.749 599.643 230.894C598.547 224.4 598.108 217.907 597.67 211.414C586.27 215.269 574.431 217.095 561.496 215.472C558.865 215.269 556.234 214.66 553.604 214.255C549.657 213.443 545.492 212.225 541.326 210.805C536.503 208.979 531.461 206.747 526.199 204.109C482.352 180.57 481.475 157.438 487.614 131.465C485.202 130.653 482.352 129.841 479.283 129.03Z" fill="white" fill-opacity="0.42"/>
<path d="M533.652 234.14C527.733 244.692 519.402 252.809 509.536 259.708C503.617 263.969 497.04 267.622 490.243 271.274C484.105 274.521 477.747 277.565 471.389 280.608C453.85 289.131 435.873 297.856 422.5 310.437C409.126 297.856 391.149 289.131 373.61 280.608C368.787 278.376 363.964 275.941 359.36 273.709C352.563 277.362 345.986 281.217 339.848 285.275C347.959 289.74 356.071 293.595 364.183 297.45C384.353 307.19 403.426 316.524 414.169 330.729L422.719 342.092L431.269 330.729C441.792 316.524 460.866 307.393 481.255 297.45C490.682 292.783 500.547 288.116 509.975 282.637C516.113 279.188 521.813 275.332 527.513 271.071C538.475 262.549 548.122 252.403 554.48 239.01C549.876 238.199 545.052 236.981 540.01 235.561C537.598 235.358 535.625 234.749 533.652 234.14Z" fill="white" fill-opacity="0.42"/>
<path d="M422.5 46.2395L412.854 72.0099C406.496 89.0549 392.684 96.157 375.803 101.433C376.241 103.462 376.899 105.491 377.337 107.52C377.776 109.347 378.214 111.173 378.872 112.999C379.31 114.622 379.749 116.043 380.187 117.666C380.407 118.478 380.626 119.087 380.845 119.898C396.411 115.028 411.977 108.535 422.719 95.1424C434.777 109.752 452.316 116.449 469.636 121.319C470.732 121.724 471.828 121.927 472.924 122.333C475.336 122.942 477.967 123.754 480.378 124.362C483.448 125.174 486.517 125.986 489.367 126.797C518.964 134.914 543.08 145.872 543.08 195.383C543.08 199.239 542.86 202.891 542.422 206.341C549.438 208.573 556.014 210.196 562.592 211.211C563.249 206.138 563.688 200.862 563.688 195.18C563.688 131.667 527.075 117.057 494.409 107.926C491.559 107.114 488.709 106.506 486.078 105.694C482.132 104.679 478.405 103.665 474.678 102.65C455.605 97.1716 439.6 90.2724 432.585 71.6041L422.5 46.2395Z" fill="white" fill-opacity="0.42"/>
<path d="M280.531 195.384C280.531 202.689 281.189 209.385 282.285 215.675C283.381 215.472 284.477 215.269 285.793 215.269C284.697 215.472 283.601 215.675 282.285 215.675C283.162 221.154 284.697 226.227 286.231 230.894C286.67 232.111 287.108 233.329 287.547 234.344C293.247 248.142 302.016 258.896 312.54 267.622C318.021 263.564 323.94 259.708 329.859 256.259C320.651 248.954 312.978 240.431 307.936 229.271C306.84 227.039 305.963 224.806 305.305 222.371C304.209 218.719 303.113 214.864 302.455 210.805C301.578 205.935 301.139 200.862 301.139 195.384C301.139 148.51 322.625 136.335 349.81 128.015C349.152 125.377 348.275 122.536 347.617 119.899C346.96 117.666 346.521 115.637 345.864 113.405C345.425 112.188 345.206 110.767 344.767 109.55C313.636 118.884 280.531 135.117 280.531 195.384Z" fill="white" fill-opacity="0.42"/>
<path d="M277.804 216.081C265.088 216.689 253.249 214.052 241.849 209.587C234.834 206.949 228.037 203.5 221.46 199.847C215.322 196.601 209.402 192.948 203.264 189.499C186.602 179.759 169.501 169.613 150.866 165.149C155.909 148.104 155.251 129.435 154.374 111.173C154.155 106.1 153.936 101.23 153.716 96.3599C146.92 92.7074 139.905 89.4607 133.108 86.417C132.889 95.1424 133.328 103.665 133.766 111.984C134.643 133.088 135.739 152.974 127.627 168.598L121.27 181.179L136.178 182.194C154.813 183.614 173.009 194.369 192.083 205.529C201.071 210.805 210.498 216.284 220.145 221.154C226.503 224.197 232.861 227.038 239.657 229.27C253.03 233.734 267.5 236.372 283.066 234.952C281.531 230.691 280.215 226.429 279.119 221.762C278.462 219.936 278.023 218.11 277.804 216.081Z" fill="white" fill-opacity="0.42"/>
<path d="M322.748 23.1072C320.994 24.5276 319.459 25.948 317.705 27.5713C316.171 28.7888 314.855 30.2093 313.321 31.4268C312.005 32.4413 310.909 33.6588 309.594 34.8763C308.936 35.4851 308.498 35.8909 307.84 36.4997C320.117 46.6455 334.148 55.5738 351.906 57.8059C344.233 74.8509 346.864 92.0988 350.81 108.332C351.029 109.347 351.249 110.361 351.687 111.376C352.345 113.811 353.002 116.043 353.66 118.275C354.537 121.116 355.195 123.957 355.852 126.798C363.087 154.597 364.841 179.353 318.363 204.109C314.855 206.138 311.128 207.761 307.84 209.182C309.155 215.878 310.909 221.965 313.321 227.85C318.363 225.821 323.406 223.589 328.667 220.748C388.08 188.89 383.476 152.365 375.584 121.522C374.926 118.884 374.268 116.246 373.611 113.811C372.514 110.158 371.637 106.506 370.761 103.056C366.376 84.9967 364.841 68.7634 378.653 53.9505L397.946 33.0501L369.007 38.123C349.933 41.3697 336.341 34.0647 322.748 23.1072Z" fill="white" fill-opacity="0.42"/>
<path d="M157.663 17.0195C156.786 18.0341 155.909 18.8458 155.032 19.8604C144.947 31.4266 139.466 43.8045 136.178 56.3853C142.755 58.8203 149.113 61.6612 155.47 64.502C157.663 53.5445 161.828 42.9929 169.721 33.4558C171.255 31.6295 173.009 29.6004 174.763 27.7741C177.613 24.9333 180.683 22.2954 184.19 19.6574C188.356 16.6137 192.741 13.7729 198.002 10.932C241.849 -12.6063 263.992 -1.44589 285.258 16.4108C287.45 14.5845 289.643 12.5554 291.835 10.5262C293.589 8.90286 295.343 7.48244 297.097 5.85911C298.193 4.84453 299.289 4.03286 300.166 3.01828C275.831 -17.4763 244.261 -35.9417 187.698 -5.70714C180.902 -2.05464 174.982 1.80078 169.721 5.85911C165.117 9.71453 161.171 13.367 157.663 17.0195Z" fill="white" fill-opacity="0.42"/>
<path d="M151.525 15.5991C154.594 12.3524 158.102 8.90286 161.829 5.85912C163.363 4.4387 164.898 3.2212 166.652 2.0037C159.856 -7.93921 156.348 -18.6938 154.813 -30.0571C154.375 -33.3038 154.156 -36.5505 153.936 -39.7971H133.328C133.547 -33.7096 134.205 -27.825 135.301 -21.9405C137.494 -8.9538 142.317 3.82995 151.525 15.5991Z" fill="white" fill-opacity="0.42"/>
<path d="M304.112 6.67086C303.235 7.48252 302.358 8.09128 301.481 8.90294C299.508 10.5263 297.754 12.1496 296.001 13.9759C293.808 16.005 291.397 18.0342 289.204 20.0634C266.623 39.7463 244.48 53.5446 198.002 28.7888C194.494 26.7596 190.987 24.9334 187.917 22.9042C182.436 27.3684 177.394 31.8325 173.229 36.4996C177.613 39.5434 182.436 42.5871 187.698 45.225C247.111 77.0829 279.119 54.965 304.112 33.2529C306.305 31.4267 308.278 29.6004 310.47 27.7742C313.32 25.1363 316.17 22.4984 319.24 20.0634C333.928 7.48253 348.179 -1.85164 369.225 1.80086L397.945 6.67086L378.652 -14.0266C370.979 -22.3462 367.91 -30.8687 367.691 -40.2029H347.082C347.302 -32.8979 348.617 -25.39 352.125 -18.085C332.394 -15.4471 317.266 -4.69247 304.112 6.67086Z" fill="white" fill-opacity="0.42"/>
<path d="M834.443 -6.51851C825.016 -1.85143 815.151 2.81565 805.724 8.2944C799.585 11.744 793.885 15.5994 788.185 19.8606C777.223 28.3831 767.577 38.529 761.219 51.9215C765.823 52.7331 770.646 53.9506 775.688 55.3711C777.661 55.9798 779.634 56.5886 781.827 57.1973C787.746 46.6456 796.077 38.529 805.943 31.6298C811.862 27.3686 818.439 23.7161 825.236 20.0636C831.374 16.8169 837.732 13.7731 844.09 10.7294C861.629 2.2069 879.606 -6.51851 892.979 -19.0993C906.353 -6.51851 924.33 2.2069 941.869 10.7294C946.692 12.9615 951.515 15.3965 956.119 17.6286C962.916 13.9761 969.493 10.1207 975.631 6.06232C967.52 1.59815 959.408 -2.25726 951.296 -6.11268C931.126 -15.8527 912.053 -25.1868 901.31 -39.391L901.091 -39.9998H884.648L884.429 -39.5939C873.906 -25.3898 854.832 -16.2585 834.443 -6.51851Z" fill="white" fill-opacity="0.42"/>
<path d="M753.108 79.7209C752.45 84.7939 752.012 90.0697 752.012 95.7514C752.012 159.264 788.624 173.874 821.29 183.006C824.14 183.817 826.99 184.426 829.621 185.238C833.567 186.252 837.294 187.267 841.021 188.281C860.095 193.76 876.099 200.659 883.115 219.328L892.761 245.098L902.407 219.328C908.765 202.283 922.577 195.181 939.458 189.905C939.02 187.876 938.362 185.846 937.924 183.817C937.485 181.991 937.047 180.165 936.389 178.338C935.95 176.715 935.512 175.295 935.074 173.671C934.854 172.86 934.635 172.251 934.416 171.439C918.85 176.309 903.284 182.803 892.542 196.195C880.484 181.585 862.945 174.889 845.625 170.019C844.529 169.613 843.433 169.41 842.337 169.004C839.925 168.396 837.294 167.584 834.883 166.975C831.814 166.163 828.744 165.352 825.894 164.54C796.297 156.423 772.181 145.466 772.181 95.9543C772.181 92.0989 772.401 88.4464 772.839 84.9968C766.262 82.5618 759.685 80.7355 753.108 79.7209Z" fill="white" fill-opacity="0.42"/>
<path d="M1028.03 60.2409C1027.59 59.0234 1027.15 57.8059 1026.71 56.7913C1021.01 42.9929 1012.24 32.2384 1001.72 23.5129C996.24 27.5713 990.321 31.4267 984.402 34.8763C993.609 42.1813 1001.28 50.7038 1006.33 61.8642C1007.42 64.0963 1008.3 66.3283 1008.96 68.7633C1010.05 72.4158 1011.15 76.2713 1011.81 80.3296C1012.68 85.1996 1013.12 90.2725 1013.12 95.7513C1013.12 142.625 991.636 154.8 964.451 163.12C965.109 165.757 965.986 168.598 966.644 171.236C967.301 173.468 967.74 175.497 968.397 177.73C968.836 178.947 969.055 180.367 969.494 181.585C1000.84 172.454 1033.95 156.22 1033.95 95.7513C1033.95 88.4463 1033.29 81.75 1032.19 75.4596C1031.1 75.6625 1030 75.8654 1028.69 75.8654C1029.78 75.6625 1030.88 75.4596 1032.19 75.4596C1031.1 70.1838 1029.78 65.1109 1028.03 60.2409Z" fill="white" fill-opacity="0.42"/>
<path d="M1032.41 56.1826C1033.95 60.4438 1035.26 64.7051 1036.36 69.3721C1036.8 71.1984 1037.24 73.2276 1037.68 75.0538C1050.39 74.4451 1062.23 77.083 1073.63 81.5471C1080.65 84.1851 1087.44 87.6346 1094.02 91.2871C1100.16 94.5338 1106.08 98.1863 1112.22 101.636C1128.88 111.376 1145.98 121.522 1164.61 125.986C1159.57 143.031 1160.23 161.699 1161.11 179.962C1161.32 185.035 1161.54 189.905 1161.76 194.775C1168.56 198.427 1175.57 201.674 1182.37 204.718C1182.59 195.992 1182.15 187.47 1181.71 179.15C1180.84 158.047 1179.74 138.161 1187.85 122.536L1194.21 109.955L1179.3 108.941C1160.67 107.52 1142.47 96.7659 1123.4 85.6055C1114.41 80.3296 1104.98 74.8509 1095.33 69.9809C1088.98 66.9371 1082.62 64.0963 1075.82 61.8642C1062.45 57.1972 1048.2 54.7622 1032.41 56.1826Z" fill="white" fill-opacity="0.42"/>
<path d="M997.117 87.0259C1000.62 84.9967 1004.35 83.3734 1007.64 81.953C1006.32 75.2567 1004.57 69.1693 1002.16 63.2847C997.117 65.3138 992.074 67.5459 986.813 70.3868C927.4 102.245 932.004 138.77 939.896 169.613C940.554 172.251 941.212 174.889 941.869 177.324C942.965 180.976 943.843 184.629 944.719 188.078C949.104 206.138 950.639 222.371 936.827 237.184L917.534 257.882L946.473 252.809C965.547 249.359 979.139 256.867 992.732 267.825C994.486 266.404 996.021 264.984 997.774 263.36C999.309 262.143 1000.62 260.723 1002.16 259.505C1003.47 258.49 1004.57 257.273 1005.89 256.055C1006.54 255.447 1006.98 255.041 1007.64 254.432C995.363 244.286 981.332 235.358 963.574 233.126C971.247 216.081 968.616 198.833 964.67 182.6C964.451 181.585 964.231 180.57 963.793 179.556C963.135 177.121 962.478 174.889 961.82 172.657C960.943 169.816 960.285 166.975 959.627 164.134C952.393 136.538 950.639 111.782 997.117 87.0259Z" fill="white" fill-opacity="0.42"/>
<path d="M1145.76 257.476C1144.22 259.302 1142.47 261.331 1140.72 263.158C1137.87 265.998 1134.8 268.636 1131.29 271.274C1127.12 274.318 1122.74 277.159 1117.48 280C1073.63 303.538 1051.49 292.378 1030.22 274.521C1028.03 276.347 1025.84 278.376 1023.64 280.405C1021.89 282.029 1020.14 283.449 1018.38 285.073C1017.29 286.087 1016.19 286.899 1015.31 287.913C1039.65 308.408 1071.22 326.873 1127.78 296.639C1134.58 292.986 1140.5 289.131 1145.76 285.073C1150.36 281.623 1154.31 277.97 1158.04 274.318C1158.91 273.303 1159.79 272.492 1160.67 271.477C1170.75 259.911 1176.23 247.533 1179.52 234.952C1172.94 232.517 1166.59 229.676 1160.23 226.835C1157.82 237.59 1153.43 247.939 1145.76 257.476Z" fill="white" fill-opacity="0.42"/>
<path d="M1182.59 332.961C1182.37 326.265 1181.71 319.771 1180.4 313.278C1177.99 300.291 1173.16 287.507 1163.96 275.535C1160.89 278.782 1157.38 282.232 1153.65 285.275C1152.12 286.696 1150.58 287.913 1148.83 289.131C1155.62 299.074 1159.13 309.828 1160.67 321.192C1161.54 328.091 1161.98 335.193 1161.76 342.498C1161.76 348.991 1161.32 355.687 1161.11 362.384C1160.23 380.646 1159.35 399.517 1164.61 416.36C1146.2 420.824 1128.88 430.767 1112.22 440.71C1107.61 443.347 1103.01 445.985 1098.62 448.623C1098.62 455.928 1099.06 463.03 1099.72 470.132C1107.83 465.871 1115.72 461.407 1123.4 456.74C1142.69 445.377 1160.89 434.622 1179.3 433.405L1194.21 432.39L1187.85 419.809C1179.96 404.185 1180.84 384.299 1181.71 363.195C1182.37 353.455 1182.81 343.31 1182.59 332.961Z" fill="white" fill-opacity="0.42"/>
<path d="M1011.37 258.085C1009.18 259.911 1007.2 261.737 1005.01 263.563C1002.16 266.201 999.31 268.839 996.24 271.274C981.552 283.855 967.301 293.189 946.254 289.537L917.315 284.464L936.608 305.161C949.324 318.757 949.105 333.367 945.597 349.6C947.789 350.209 949.981 350.817 952.174 351.426C954.147 352.035 956.12 352.441 958.093 353.05C959.847 353.455 961.382 353.861 963.136 354.47C964.013 354.673 964.67 354.876 965.547 355.079C968.836 340.063 970.37 324.438 963.355 309.22C983.086 306.987 997.994 296.233 1011.15 284.667C1012.03 283.855 1012.9 283.246 1013.78 282.435C1015.75 280.811 1017.51 279.188 1019.26 277.362C1021.45 275.332 1023.86 273.303 1026.06 271.274C1048.64 251.591 1070.78 237.793 1117.26 262.549C1120.77 264.578 1124.27 266.404 1127.34 268.433C1132.82 263.969 1137.87 259.505 1142.03 254.838C1137.65 251.794 1132.82 248.75 1127.56 246.112C1068.15 214.255 1036.14 236.17 1011.37 258.085Z" fill="white" fill-opacity="0.42"/>
<path d="M1032.2 467.089C1029.56 466.886 1026.93 466.277 1024.3 465.871C1020.36 465.06 1016.19 463.842 1012.03 462.422C1007.2 460.595 1002.16 458.363 996.898 455.725C953.051 432.187 952.174 409.055 958.313 383.081C955.463 382.27 952.613 381.458 949.543 380.849C947.132 380.24 944.939 379.632 942.528 379.023C941.212 378.617 939.678 378.211 938.362 377.805C931.347 407.634 930.031 442.13 986.375 472.365C993.171 476.017 999.748 478.858 1006.11 481.09C1011.59 482.916 1017.07 484.54 1022.33 485.351C1023.65 485.554 1024.96 485.757 1026.28 485.96C1042.06 488.192 1056.53 486.569 1069.9 482.713C1068.81 476.22 1068.37 469.727 1067.93 463.233C1056.97 466.683 1045.13 468.509 1032.2 467.089Z" fill="white" fill-opacity="0.42"/>
<path d="M1004.13 485.351C998.213 495.903 989.882 504.019 980.017 510.919C974.097 515.18 967.52 518.832 960.724 522.485C954.585 525.732 948.227 528.775 941.87 531.819C924.331 540.341 906.353 549.067 892.98 561.648C879.607 549.067 861.629 540.341 844.09 531.819C839.267 529.587 834.444 527.152 829.84 524.92C823.044 528.572 816.467 532.428 810.328 536.486C818.44 540.95 826.552 544.806 834.663 548.661C854.833 558.401 873.907 567.735 884.649 581.939L893.199 593.303L901.749 581.939C912.273 567.735 931.346 558.604 951.735 548.661C961.162 543.994 971.028 539.327 980.455 533.848C986.594 530.399 992.294 526.543 997.994 522.282C1008.96 513.759 1018.6 503.614 1024.96 490.221C1020.36 489.409 1015.53 488.192 1010.49 486.772C1008.08 486.772 1006.11 486.163 1004.13 485.351Z" fill="white" fill-opacity="0.42"/>
<path d="M964.451 359.543C961.601 358.731 958.751 358.123 956.12 357.311C952.174 356.296 948.447 355.282 944.72 354.267C925.647 348.788 909.642 341.889 902.627 323.221L892.98 297.45L883.334 323.221C876.976 340.266 863.164 347.368 846.283 352.644C846.722 354.673 847.379 356.702 847.818 358.731C848.256 360.557 848.695 362.384 849.353 364.21C849.791 365.833 850.229 367.254 850.668 368.877C850.887 369.689 851.106 370.298 851.326 371.109C866.891 366.239 882.457 359.746 893.2 346.353C905.258 360.963 922.796 367.66 940.116 372.53C941.212 372.935 942.308 373.138 943.405 373.544C945.816 374.153 948.447 374.965 950.859 375.573C953.928 376.385 956.997 377.197 959.847 378.008C989.444 386.125 1013.56 397.082 1013.56 446.594C1013.56 450.45 1013.34 454.102 1012.9 457.552C1019.92 459.784 1026.5 461.407 1033.07 462.422C1033.73 457.349 1034.17 452.073 1034.17 446.391C1033.95 383.284 997.337 368.674 964.451 359.543Z" fill="white" fill-opacity="0.42"/>
<path d="M752.012 446.797C752.012 454.102 752.669 460.798 753.766 467.089C754.862 466.886 755.958 466.683 757.273 466.683C756.177 466.886 755.081 467.089 753.766 467.089C754.643 472.567 756.177 477.64 757.712 482.307C758.15 483.525 758.589 484.743 759.027 485.757C764.727 499.555 773.497 510.31 784.02 519.035C789.501 514.977 795.42 511.122 801.34 507.672C792.132 500.367 784.459 491.845 779.416 480.684C778.32 478.452 777.443 476.22 776.785 473.785C775.689 470.132 774.593 466.277 773.935 462.219C773.058 457.349 772.62 452.276 772.62 446.797C772.62 399.923 794.105 387.748 821.29 379.429C820.632 376.791 819.756 373.95 819.098 371.312C818.44 369.08 818.002 367.051 817.344 364.819C816.905 363.601 816.686 362.181 816.248 360.963C784.897 370.095 752.012 386.328 752.012 446.797Z" fill="white" fill-opacity="0.42"/>
<path d="M591.312 432.39L606.22 433.405C624.855 434.825 643.051 445.58 662.125 456.74C671.113 462.016 680.54 467.495 690.187 472.365C696.545 475.408 702.903 478.249 709.699 480.481C723.072 484.945 737.542 487.583 753.107 486.163C751.573 481.902 750.257 477.64 749.161 472.973C748.723 471.147 748.284 469.118 747.846 467.292C735.13 467.9 723.291 465.262 711.891 460.798C704.876 458.16 698.079 454.711 691.502 451.058C685.364 447.812 679.444 444.159 673.306 440.71C656.644 430.97 639.543 420.824 620.908 416.36C625.951 399.315 625.293 380.646 624.416 362.384C624.197 357.311 623.978 352.441 623.758 347.571C616.962 343.918 609.946 340.672 603.15 337.628C602.931 346.353 603.37 354.876 603.808 363.195C604.685 384.299 605.781 404.185 597.669 419.809L591.312 432.39Z" fill="white" fill-opacity="0.42"/>
<path d="M868.425 284.464L839.486 289.537C820.413 292.986 806.82 285.478 793.227 274.521C791.473 275.941 789.939 277.362 788.185 278.985C786.65 280.202 785.335 281.623 783.8 282.84C782.485 283.855 781.389 285.072 780.073 286.29C779.415 286.899 778.977 287.305 778.319 287.913C790.597 298.059 804.628 306.987 822.386 309.22C814.712 326.265 817.343 343.512 821.289 359.746C821.509 360.76 821.728 361.775 822.166 362.789C822.824 365.224 823.482 367.457 824.14 369.689C825.017 372.529 825.674 375.37 826.332 378.211C833.567 406.011 835.321 430.767 788.843 455.522C785.335 457.552 781.608 459.175 778.319 460.595C779.635 467.292 781.389 473.379 783.8 479.264C788.843 477.234 793.885 475.002 799.147 472.162C858.56 440.304 853.956 403.779 846.063 372.935C845.406 370.297 844.748 367.659 844.09 365.224C842.994 361.572 842.117 357.919 841.24 354.47C836.855 336.41 835.321 320.177 849.132 305.364L868.425 284.464Z" fill="white" fill-opacity="0.42"/>
<path d="M627.924 268.433C627.047 269.448 626.17 270.26 625.293 271.274C615.208 282.84 609.727 295.218 606.438 307.799C613.016 310.234 619.373 313.075 625.731 315.916C627.924 304.958 632.089 294.407 639.982 284.87C641.516 283.043 643.27 281.014 645.024 279.188C647.874 276.347 650.943 273.709 654.451 271.071C658.617 268.028 663.001 265.187 668.263 262.346C712.11 238.808 734.253 249.968 755.519 267.825C757.711 265.998 759.904 263.969 762.096 261.94C763.85 260.317 765.604 258.896 767.358 257.273C768.454 256.258 769.55 255.447 770.427 254.432C746.092 233.938 714.522 215.472 657.959 245.707C651.163 249.359 645.243 253.215 639.982 257.273C635.597 261.128 631.431 264.578 627.924 268.433Z" fill="white" fill-opacity="0.42"/>
<path d="M687.117 93.7221C687.117 86.4171 686.679 79.315 686.021 72.2129C677.909 76.4741 670.017 80.9383 662.343 85.6054C643.051 96.9687 624.854 107.723 606.438 108.941L591.53 109.955L597.888 122.536C605.781 138.161 604.904 158.047 604.027 179.15C603.588 189.093 603.15 199.239 603.588 209.385C603.807 216.081 604.465 222.574 605.781 229.067C608.192 242.054 613.015 254.838 622.223 266.81C625.293 263.563 628.8 260.114 632.527 257.07C634.062 255.65 635.597 254.432 637.351 253.215C630.554 243.272 627.046 232.517 625.512 221.154C624.635 214.255 624.196 207.152 624.416 199.847C624.416 193.354 624.854 186.658 625.073 179.962C625.95 161.699 626.827 142.828 621.566 125.986C639.981 121.522 657.301 111.579 673.963 101.636C677.909 98.9979 682.513 96.36 687.117 93.7221Z" fill="white" fill-opacity="0.42"/>
<path d="M668.483 279.999C664.975 277.97 661.467 276.144 658.398 274.115C652.917 278.579 647.874 283.043 643.709 287.71C648.094 290.754 652.917 293.798 658.179 296.436C717.592 328.294 749.6 306.176 774.593 284.464C776.785 282.637 778.758 280.811 780.951 278.985C783.801 276.347 786.651 273.709 789.72 271.274C804.409 258.693 818.659 249.359 839.706 253.012L868.645 258.084L849.352 237.387C836.637 223.792 836.856 209.182 840.363 192.948C838.171 192.339 835.979 191.731 833.786 191.122C831.813 190.513 829.84 190.107 827.867 189.499C826.113 189.093 824.579 188.687 822.825 188.078C821.948 187.875 821.29 187.672 820.413 187.469C817.125 202.485 815.59 218.11 822.605 233.329C802.874 235.561 787.966 246.315 774.812 257.882C773.935 258.693 773.058 259.302 772.181 260.114C770.208 261.737 768.454 263.36 766.7 265.187C764.508 267.216 762.096 269.245 759.904 271.274C737.103 290.957 714.961 304.755 668.483 279.999Z" fill="white" fill-opacity="0.42"/>
<path d="M779.416 61.8641C773.935 60.0379 768.454 58.4145 763.192 57.6029C761.877 57.4 760.561 57.197 759.246 56.9941C743.461 54.762 728.992 56.3854 715.618 60.2408C716.714 66.7341 717.153 73.2275 717.591 79.7208C728.991 75.8654 740.83 74.0391 753.765 75.6625C756.396 75.8654 759.027 76.4741 761.658 76.88C765.604 77.6916 769.769 78.9091 773.935 80.3295C778.758 82.1558 783.8 84.3879 789.062 87.0258C832.909 110.564 833.786 133.697 827.648 159.67C830.498 160.482 833.348 161.293 836.417 161.902C838.829 162.511 841.021 163.12 843.433 163.728C844.748 164.134 846.283 164.54 847.598 164.946C854.613 135.117 855.929 100.621 799.585 70.3866C792.351 66.937 785.774 64.0962 779.416 61.8641Z" fill="white" fill-opacity="0.42"/>
<path d="M1004.13 -17.2732C998.213 -6.72153 989.882 1.39514 980.017 8.2943C974.097 12.5556 967.52 16.2081 960.724 19.8605C954.585 23.1072 948.227 26.151 941.87 29.1947C924.331 37.7172 906.353 46.4426 892.98 59.0235C879.607 46.4426 861.629 37.7172 844.09 29.1947C839.267 26.9626 834.444 24.5276 829.84 22.2956C823.044 25.9481 816.467 29.8035 810.328 33.8618C818.44 38.326 826.552 42.1814 834.663 46.0368C854.833 55.7768 873.907 65.111 884.649 79.3151L893.199 90.6785L901.749 79.3151C912.273 65.111 931.346 55.9797 951.735 46.0368C961.162 41.3697 971.028 36.7026 980.455 31.2239C986.594 27.7743 992.294 23.9189 997.994 19.6576C1008.96 11.1351 1018.6 0.989305 1024.96 -12.4032C1020.36 -13.2149 1015.53 -14.4324 1010.49 -15.8528C1008.08 -16.0557 1006.11 -16.6644 1004.13 -17.2732Z" fill="white" fill-opacity="0.42"/>
<path d="M757.054 -36.1443C755.957 -35.9414 754.861 -35.7385 753.546 -35.7385C754.423 -30.2598 755.957 -25.1868 757.492 -20.5198C757.931 -19.3023 758.369 -18.0848 758.807 -17.0702C764.508 -3.27185 773.277 7.48273 783.8 16.2081C789.281 12.1498 795.201 8.2944 801.12 4.84481C791.912 -2.46019 784.239 -10.9827 779.197 -22.1431C778.1 -24.3752 777.223 -26.6073 776.566 -29.0423C775.469 -32.4918 774.593 -36.1443 773.935 -39.9998H753.107C753.327 -38.5793 753.546 -37.1589 753.765 -35.7385C754.861 -35.9414 755.957 -36.1443 757.054 -36.1443Z" fill="white" fill-opacity="0.42"/>
<path d="M1388.01 6.67107L1416.95 1.59815C1424.85 0.177734 1431.86 0.786484 1438.22 2.40982V-17.2731C1436.9 -17.476 1435.37 -17.8818 1434.05 -17.8818C1436.25 -22.5489 1437.56 -27.216 1438.22 -31.8831V-39.9998H1418.27C1417.83 -30.8685 1414.98 -22.1431 1407.31 -13.8235L1388.01 6.67107Z" fill="white" fill-opacity="0.42"/>
<path d="M1438 37.3113C1431.64 39.1375 1424.63 39.5434 1416.73 38.123L1388.01 33.05L1407.31 53.7475C1420.02 67.343 1419.8 81.953 1416.3 98.1863C1418.49 98.795 1420.68 99.4038 1422.87 100.013C1424.85 100.621 1426.82 101.027 1428.79 101.636C1430.55 102.042 1432.08 102.448 1433.83 103.056C1434.71 103.259 1435.37 103.462 1436.25 103.665C1437.12 100.013 1437.78 96.3601 1438.22 92.5046V71.6042C1437.56 66.9371 1436.25 62.27 1434.05 57.603C1435.59 57.4 1436.9 57.1971 1438.22 56.9942V37.3113H1438Z" fill="white" fill-opacity="0.42"/>
<path d="M1438 182.397C1423.75 166.163 1424.63 149.321 1428.79 131.465C1425.94 130.653 1423.09 129.841 1420.02 129.232C1417.61 128.624 1415.42 128.015 1413.01 127.406C1411.69 127 1410.16 126.595 1408.84 126.189C1402.7 152.162 1400.95 181.788 1438 208.776V182.397Z" fill="white" fill-opacity="0.42"/>
<path d="M1438 267.419C1435.81 268.636 1433.4 270.057 1430.98 271.274C1424.85 274.521 1418.49 277.565 1412.13 280.608C1394.59 289.131 1376.61 297.856 1363.24 310.437C1349.87 297.856 1331.89 289.131 1314.35 280.608C1309.53 278.376 1304.7 275.941 1300.1 273.709C1293.3 277.362 1286.73 281.217 1280.59 285.275C1288.7 289.74 1296.81 293.595 1304.92 297.45C1325.09 307.19 1344.17 316.525 1354.91 330.729L1363.46 342.092L1372.01 330.729C1382.53 316.525 1401.61 307.393 1422 297.45C1427.48 294.812 1432.96 292.175 1438.22 289.334V267.419H1438Z" fill="white" fill-opacity="0.42"/>
<path d="M1363.24 46.2395L1353.59 72.0099C1347.24 89.0549 1333.43 96.157 1316.54 101.433C1316.98 103.462 1317.64 105.491 1318.08 107.52C1318.52 109.347 1318.96 111.173 1319.61 112.999C1320.05 114.622 1320.49 116.043 1320.93 117.666C1321.15 118.478 1321.37 119.087 1321.59 119.898C1337.15 115.028 1352.72 108.535 1363.46 95.1424C1375.52 109.752 1393.06 116.449 1410.38 121.319C1411.47 121.724 1412.57 121.927 1413.67 122.333C1416.08 122.942 1418.71 123.754 1421.12 124.362C1424.19 125.174 1427.26 125.986 1430.11 126.797C1432.96 127.609 1435.59 128.421 1438.22 129.232V109.144C1437.12 108.941 1436.03 108.535 1435.15 108.332C1432.3 107.52 1429.45 106.912 1426.82 106.1C1422.87 105.085 1419.15 104.071 1415.42 103.056C1396.35 97.5774 1380.34 90.6782 1373.33 72.0099L1363.24 46.2395Z" fill="white" fill-opacity="0.42"/>
<path d="M1222.49 195.383C1222.49 202.688 1223.15 209.385 1224.25 215.675C1225.34 215.472 1226.44 215.269 1227.75 215.269C1226.66 215.472 1225.56 215.675 1224.25 215.675C1225.12 221.154 1226.66 226.227 1228.19 230.894C1228.63 232.111 1229.07 233.329 1229.51 234.343C1235.21 248.142 1243.98 258.896 1254.5 267.622C1259.98 263.563 1265.9 259.708 1271.82 256.258C1262.61 248.953 1254.94 240.431 1249.9 229.27C1248.8 227.038 1247.92 224.806 1247.26 222.371C1246.17 218.719 1245.07 214.863 1244.41 210.805C1243.54 205.935 1243.1 200.862 1243.1 195.383C1243.1 148.51 1264.58 136.335 1291.77 128.015C1291.11 125.377 1290.24 122.536 1289.58 119.898C1288.92 117.666 1288.48 115.637 1287.82 113.405C1287.39 112.187 1287.17 110.767 1286.73 109.55C1255.38 118.884 1222.49 135.117 1222.49 195.383Z" fill="white" fill-opacity="0.42"/>
<path d="M1218.54 216.081C1205.83 216.689 1193.99 214.052 1182.59 209.587C1175.57 206.949 1168.78 203.5 1162.2 199.847C1156.06 196.601 1150.14 192.948 1144 189.499C1127.34 179.759 1110.24 169.613 1091.61 165.149C1096.65 148.104 1095.99 129.435 1095.12 111.173C1094.9 106.1 1094.68 101.23 1094.46 96.3599C1087.66 92.7074 1080.65 89.4607 1073.85 86.417C1073.63 95.1424 1074.07 103.665 1074.51 111.984C1075.38 133.088 1076.48 152.974 1068.37 168.598L1062.01 181.179L1076.92 182.194C1095.55 183.614 1113.75 194.369 1132.82 205.529C1141.81 210.805 1151.24 216.284 1160.89 221.154C1167.24 224.197 1173.6 227.038 1180.4 229.27C1193.77 233.734 1208.24 236.372 1223.81 234.952C1222.27 230.691 1220.96 226.429 1219.86 221.762C1219.42 219.936 1218.98 218.11 1218.54 216.081Z" fill="white" fill-opacity="0.42"/>
<path d="M1263.71 23.1072C1261.95 24.5276 1260.42 25.948 1258.67 27.5713C1257.13 28.7888 1255.82 30.2093 1254.28 31.4268C1252.97 32.4413 1251.87 33.6588 1250.55 34.8763C1249.9 35.4851 1249.46 35.8909 1248.8 36.4997C1261.08 46.6455 1275.11 55.5738 1292.87 57.8059C1285.19 74.8509 1287.82 92.0988 1291.77 108.332C1291.99 109.347 1292.21 110.361 1292.65 111.376C1293.3 113.811 1293.96 116.043 1294.62 118.275C1295.5 121.116 1296.15 123.957 1296.81 126.798C1304.05 154.597 1305.8 179.353 1259.32 204.109C1255.82 206.138 1252.09 207.761 1248.8 209.182C1250.12 215.878 1251.87 221.965 1254.28 227.85C1259.32 225.821 1264.37 223.589 1269.63 220.748C1329.04 188.89 1324.44 152.365 1316.54 121.522C1315.89 118.884 1315.23 116.246 1314.57 113.811C1313.47 110.158 1312.6 106.506 1311.72 103.056C1307.34 84.9967 1305.8 68.7634 1319.61 53.9505L1338.91 33.253L1309.97 38.3259C1290.67 41.3697 1277.08 34.0647 1263.71 23.1072Z" fill="white" fill-opacity="0.42"/>
<path d="M1098.4 17.0195C1097.53 18.0341 1096.65 18.8458 1095.77 19.8604C1085.69 31.4266 1080.21 43.8045 1076.92 56.3853C1083.5 58.8203 1089.85 61.6612 1096.21 64.502C1098.4 53.5445 1102.57 42.9929 1110.46 33.4558C1112 31.6295 1113.75 29.6004 1115.5 27.7741C1118.35 24.9333 1121.42 22.2954 1124.93 19.6574C1129.1 16.6137 1133.48 13.7729 1138.74 10.932C1182.59 -12.6063 1204.73 -1.44589 1226 16.4108C1228.19 14.5845 1230.38 12.5554 1232.58 10.5262C1234.33 8.90286 1236.08 7.48244 1237.84 5.85911C1238.93 4.84453 1240.03 4.03286 1240.91 3.01828C1216.57 -17.4763 1185 -35.9417 1128.44 -5.70714C1121.64 -2.05464 1115.72 1.80078 1110.46 5.85911C1106.08 9.71453 1101.91 13.367 1098.4 17.0195Z" fill="white" fill-opacity="0.42"/>
<path d="M1092.26 15.5991C1095.33 12.3524 1098.84 8.90286 1102.57 5.85912C1104.1 4.4387 1105.64 3.2212 1107.39 2.0037C1100.6 -7.93921 1097.09 -18.6938 1095.55 -30.0571C1095.11 -33.3038 1094.9 -36.5505 1094.68 -39.7971H1074.07C1074.29 -33.7096 1074.95 -27.825 1076.04 -21.9405C1078.45 -8.9538 1083.28 3.82995 1092.26 15.5991Z" fill="white" fill-opacity="0.42"/>
<path d="M1244.85 6.67107C1243.98 7.48273 1243.1 8.09148 1242.22 8.90315C1240.25 10.5265 1238.5 12.1498 1236.74 13.9761C1234.55 16.0052 1232.14 18.0344 1229.95 20.0636C1207.36 39.7465 1185.22 53.5448 1138.74 28.789C1135.24 26.7598 1131.73 24.9336 1128.66 22.9044C1123.18 27.3686 1118.14 31.8327 1113.97 36.4998C1118.35 39.5436 1123.18 42.5873 1128.44 45.2252C1187.85 77.0831 1219.86 54.9652 1244.85 33.2531C1247.05 31.4269 1249.02 29.6006 1251.21 27.7744C1254.06 25.1365 1256.91 22.4986 1259.98 20.0636C1274.67 7.48273 1288.92 -1.85143 1309.97 1.80107L1338.91 6.87399L1319.61 -13.8235C1311.94 -22.1431 1308.87 -30.6656 1308.65 -39.9998H1288.04C1288.26 -32.6948 1289.58 -25.1868 1293.09 -17.8818C1273.13 -15.4468 1258.23 -4.69226 1244.85 6.67107Z" fill="white" fill-opacity="0.42"/>
<path d="M-179.521 554.749C-174.918 555.56 -170.094 556.778 -165.052 558.198C-163.079 558.807 -161.106 559.416 -158.913 560.024C-152.994 549.473 -144.663 541.356 -134.797 534.457C-128.878 530.196 -122.301 526.543 -115.505 522.891C-109.366 519.644 -103.008 516.6 -96.6504 513.556C-79.1115 505.034 -61.1342 496.309 -47.7608 483.728C-34.3874 496.309 -16.4101 505.034 1.12877 513.556C5.95195 515.789 10.7751 518.224 15.3791 520.456C22.1754 516.803 28.7525 512.948 34.8911 508.889C26.7793 504.425 18.6676 500.57 10.5559 496.714C-9.61382 486.974 -28.6873 477.64 -39.4299 463.436L-47.98 452.073L-56.5302 463.436C-67.0536 477.64 -86.1271 486.771 -106.516 496.714C-115.943 501.381 -125.809 506.049 -135.236 511.527C-141.374 514.977 -147.075 518.832 -152.775 523.094C-163.298 531.21 -172.944 541.356 -179.521 554.749Z" fill="white" fill-opacity="0.42"/>
<path d="M431.05 211.82L422.5 200.456L413.95 211.82C403.426 226.024 384.353 235.155 363.964 245.098C354.537 249.765 344.671 254.432 335.244 259.911C329.105 263.36 323.405 267.216 317.705 271.477C306.743 280 297.097 290.145 290.739 303.538C295.343 304.35 300.166 305.567 305.209 306.988C307.182 307.596 309.155 308.205 311.347 308.814C317.267 298.262 325.598 290.145 335.463 283.246C341.383 278.985 347.96 275.333 354.756 271.68C360.895 268.433 367.253 265.39 373.61 262.346C391.149 253.823 409.127 245.098 422.5 232.517C435.873 245.098 453.851 253.823 471.39 262.346C476.213 264.578 481.036 267.013 485.64 269.245C492.436 265.593 499.013 261.737 505.152 257.679C497.04 253.215 488.928 249.359 480.817 245.504C460.647 235.155 441.573 226.024 431.05 211.82Z" fill="white" fill-opacity="0.42"/>
<path d="M282.627 331.135C281.97 336.207 281.531 341.483 281.531 347.165C281.531 410.678 318.144 425.288 350.81 434.419C353.66 435.231 356.51 435.84 359.141 436.651C363.087 437.666 366.814 438.68 370.541 439.695C389.614 445.174 405.619 452.073 412.634 470.741L422.281 496.512L431.927 470.741C438.285 453.696 452.097 446.594 468.978 441.318C468.539 439.289 467.882 437.26 467.443 435.231C467.005 433.405 466.566 431.578 465.909 429.752C465.47 428.129 465.032 426.708 464.593 425.085C464.374 424.273 464.155 423.665 463.935 422.853C448.37 427.723 432.804 434.216 422.061 447.609C410.003 432.999 392.465 426.302 375.145 421.432C374.049 421.027 372.953 420.824 371.856 420.418C369.445 419.809 366.814 418.997 364.402 418.389C361.333 417.577 358.264 416.765 355.414 415.954C325.817 407.837 301.701 396.88 301.701 347.368C301.701 343.512 301.92 339.86 302.359 336.41C296.001 333.772 289.205 332.149 282.627 331.135Z" fill="white" fill-opacity="0.42"/>
<path d="M557.769 311.655C557.33 310.437 556.892 309.22 556.453 308.205C550.753 294.407 541.984 283.652 531.461 274.927C525.98 278.985 520.06 282.841 514.141 286.29C523.349 293.595 531.022 302.118 536.064 313.278C537.161 315.51 538.038 317.742 538.695 320.177C539.792 323.83 540.888 327.685 541.545 331.743C542.422 336.613 542.861 341.686 542.861 347.165C542.861 394.039 521.376 406.214 494.19 414.533C494.848 417.171 495.725 420.012 496.383 422.65C497.04 424.882 497.479 426.911 498.137 429.143C498.575 430.361 498.794 431.781 499.233 432.999C530.584 423.868 563.688 407.634 563.688 347.165C563.688 339.86 563.03 333.164 561.934 326.873C560.838 327.076 559.742 327.279 558.427 327.279C559.523 327.076 560.619 326.873 561.934 326.873C560.838 321.395 559.304 316.322 557.769 311.655Z" fill="white" fill-opacity="0.42"/>
<path d="M605.562 313.278C592.189 308.814 577.719 306.176 562.153 307.596C563.688 311.857 565.003 316.119 566.1 320.786C566.538 322.612 566.976 324.641 567.415 326.467C580.131 325.859 591.969 328.497 603.37 332.961C610.385 335.599 617.181 339.048 623.759 342.701C629.897 345.947 635.816 349.6 641.955 353.05C658.617 362.79 675.717 372.935 694.352 377.4C689.31 394.445 689.968 413.113 690.845 431.375C691.064 436.448 691.283 441.318 691.502 446.188C698.299 449.841 705.314 453.087 712.11 456.131C712.33 447.406 711.891 438.883 711.453 430.564C710.576 409.46 709.48 389.575 717.591 373.95L723.949 361.369L709.041 360.355C690.406 358.934 672.21 348.18 653.136 337.019C644.147 331.743 634.72 326.265 625.074 321.395C618.716 318.351 612.139 315.51 605.562 313.278Z" fill="white" fill-opacity="0.42"/>
<path d="M447.055 509.498L475.994 504.425C495.067 500.976 508.66 508.484 522.253 519.441C524.006 518.021 525.541 516.6 527.295 514.977C528.83 513.759 530.145 512.339 531.68 511.122C532.995 510.107 534.091 508.889 535.407 507.672C536.064 507.063 536.503 506.657 537.161 506.049C524.883 495.903 510.852 486.974 493.094 484.742C500.767 467.697 498.137 450.449 494.19 434.216C493.971 433.202 493.752 432.187 493.313 431.172C492.656 428.737 491.998 426.505 491.34 424.273C490.463 421.432 489.806 418.592 489.148 415.751C481.913 387.951 480.159 363.195 526.637 338.439C530.145 336.41 533.872 334.787 537.161 333.367C535.845 326.67 534.091 320.583 531.68 314.698C526.637 316.727 521.595 318.959 516.333 321.8C456.92 353.658 461.524 390.183 469.417 421.027C470.074 423.664 470.732 426.302 471.39 428.737C472.486 432.39 473.363 436.042 474.24 439.492C478.625 457.552 480.159 473.785 466.347 488.598L447.055 509.498Z" fill="white" fill-opacity="0.42"/>
<path d="M675.279 508.889C673.745 510.716 671.991 512.745 670.237 514.571C667.387 517.412 664.318 520.05 660.81 522.688C656.644 525.732 652.259 528.572 646.998 531.413C603.151 554.952 581.008 543.791 559.742 525.934C557.55 527.761 555.357 529.79 553.165 531.819C551.411 533.442 549.657 534.863 547.903 536.486C546.807 537.501 545.711 538.312 544.834 539.327C569.169 559.822 600.739 578.287 657.302 548.052C664.098 544.4 670.018 540.544 675.279 536.486C679.883 533.037 683.829 529.384 687.556 525.732C688.433 524.717 689.31 523.905 690.187 522.891C700.272 511.324 705.753 498.947 709.042 486.366C702.465 483.931 696.107 481.09 689.749 478.249C687.337 488.801 683.172 499.352 675.279 508.889Z" fill="white" fill-opacity="0.42"/>
<path d="M466.347 556.372C479.063 569.967 478.843 584.577 475.336 600.811C477.528 601.419 479.72 602.028 481.913 602.637C483.886 603.246 485.859 603.652 487.832 604.26C489.586 604.666 491.121 605.072 492.874 605.681C493.751 605.884 494.409 606.087 495.286 606.29C498.575 591.274 500.109 575.649 493.094 560.43C512.825 558.198 527.733 547.444 540.887 535.877C541.764 535.066 542.641 534.457 543.518 533.645C545.491 532.022 547.245 530.399 548.999 528.572C551.191 526.543 553.603 524.514 555.795 522.485C578.376 502.802 600.519 489.004 646.997 513.759C650.505 515.789 654.013 517.615 657.082 519.644C662.563 515.18 667.605 510.716 671.771 506.049C667.386 503.005 662.563 499.961 657.301 497.323C597.888 465.465 565.88 487.583 540.887 509.295C538.695 511.122 536.722 512.948 534.529 514.774C531.679 517.412 528.829 520.05 525.76 522.485C511.071 535.066 496.821 544.4 475.774 540.747L446.835 535.675L466.347 556.372Z" fill="white" fill-opacity="0.42"/>
<path d="M157.663 519.847C156.786 520.862 155.909 521.673 155.032 522.688C144.947 534.254 139.466 546.632 136.178 559.213C142.755 561.648 149.113 564.489 155.47 567.33C157.663 556.372 161.828 545.82 169.721 536.283C171.255 534.457 173.009 532.428 174.763 530.602C177.613 527.761 180.683 525.123 184.19 522.485C188.356 519.441 192.741 516.6 198.002 513.76C241.849 490.221 263.992 501.382 285.258 519.238C287.45 517.412 289.643 515.383 291.835 513.354C293.589 511.731 295.343 510.31 297.097 508.687C298.193 507.672 299.289 506.86 300.166 505.846C275.831 485.351 244.261 466.886 187.698 497.121C180.902 500.773 174.982 504.628 169.721 508.687C165.117 512.339 161.171 515.992 157.663 519.847Z" fill="white" fill-opacity="0.42"/>
<path d="M216.638 345.136C216.638 337.831 216.199 330.729 215.541 323.627C207.43 327.888 199.537 332.352 191.864 337.019C172.571 348.383 154.375 359.137 135.959 360.355L121.051 361.369L127.409 373.95C135.301 389.575 134.424 409.46 133.547 430.564C133.109 440.507 132.67 450.653 133.109 460.798C133.328 467.495 133.986 473.988 135.301 480.481C137.713 493.468 142.536 506.252 151.744 518.224C154.813 514.977 158.321 511.527 162.048 508.484C163.582 507.063 165.117 505.846 166.871 504.628C160.075 494.685 156.567 483.931 155.032 472.568C154.155 465.668 153.717 458.566 153.936 451.261C153.936 444.768 154.375 438.072 154.594 431.375C155.471 413.113 156.348 394.242 151.086 377.4C169.502 372.935 186.821 362.993 203.483 353.05C207.43 350.412 212.034 347.774 216.638 345.136Z" fill="white" fill-opacity="0.42"/>
<path d="M198.222 531.413C194.714 529.384 191.206 527.558 188.137 525.529C182.656 529.993 177.614 534.457 173.448 539.124C177.833 542.168 182.656 545.212 187.918 547.85C247.331 579.707 279.339 557.59 304.332 535.877C306.524 534.051 308.497 532.225 310.69 530.399C313.54 527.761 316.39 525.123 319.459 522.688C334.148 510.107 348.398 500.773 369.445 504.425L398.384 509.498L379.091 488.801C366.376 475.205 366.595 460.595 370.103 444.362C367.91 443.753 365.718 443.145 363.526 442.536C361.552 441.927 359.579 441.521 357.606 440.912C355.852 440.507 354.318 440.101 352.564 439.492C351.687 439.289 351.029 439.086 350.152 438.883C346.864 453.899 345.329 469.524 352.345 484.742C332.613 486.975 317.705 497.729 304.551 509.295C303.674 510.107 302.797 510.716 301.92 511.527C299.947 513.151 298.193 514.774 296.44 516.6C294.247 518.63 291.836 520.659 289.643 522.688C266.623 542.371 244.481 556.169 198.222 531.413Z" fill="white" fill-opacity="0.42"/>
<path d="M245.138 311.452C246.234 317.945 246.672 324.438 247.111 330.932C258.511 327.076 270.35 325.25 283.285 326.873C285.916 327.076 288.546 327.685 291.177 328.091C295.123 328.902 299.289 330.12 303.454 331.54C308.278 333.367 313.32 335.599 318.582 338.237C362.429 361.775 363.306 384.907 357.167 410.881C360.017 411.692 362.867 412.504 365.937 413.113C368.348 413.722 370.541 414.33 372.952 414.939C374.268 415.345 375.802 415.751 377.118 416.157C384.133 386.328 385.449 351.832 329.105 321.597C322.309 317.945 315.732 315.104 309.374 312.872C303.893 311.046 298.412 309.422 293.15 308.611C291.835 308.408 290.52 308.205 289.204 308.002C272.981 305.973 258.511 307.596 245.138 311.452Z" fill="white" fill-opacity="0.42"/>
<path d="M901.311 463.03L892.761 451.667L884.211 463.03C873.687 477.234 854.614 486.366 834.225 496.309C824.798 500.976 814.932 505.643 805.505 511.122C799.366 514.571 793.666 518.427 787.966 522.688C777.004 531.21 767.358 541.356 761 554.749C765.604 555.56 770.427 556.778 775.47 558.198C777.443 558.807 779.416 559.416 781.608 560.024C787.528 549.473 795.859 541.356 805.724 534.457C811.644 530.196 818.221 526.543 825.017 522.891C831.155 519.644 837.513 516.6 843.871 513.557C861.41 505.034 879.387 496.309 892.761 483.728C906.134 496.309 924.111 505.034 941.65 513.557C946.473 515.789 951.297 518.224 955.901 520.456C962.697 516.803 969.274 512.948 975.413 508.889C967.301 504.425 959.189 500.57 951.077 496.714C931.127 486.569 912.053 477.234 901.311 463.03Z" fill="white" fill-opacity="0.42"/>
<path d="M1438 253.012C1432.52 250.171 1427.04 247.533 1421.78 244.895C1401.61 235.155 1382.53 225.821 1371.79 211.617L1363.24 200.253L1354.69 211.617C1344.17 225.821 1325.09 234.952 1304.71 244.895C1295.28 249.562 1285.41 254.229 1275.99 259.708C1269.85 263.158 1264.15 267.013 1258.45 271.274C1247.48 279.797 1237.84 289.943 1231.48 303.335C1236.08 304.147 1240.91 305.364 1245.95 306.785C1247.92 307.393 1249.9 308.002 1252.09 308.611C1258.01 298.059 1266.34 289.943 1276.2 283.043C1282.12 278.782 1288.7 275.13 1295.5 271.477C1301.64 268.23 1307.99 265.187 1314.35 262.143C1331.89 253.62 1349.87 244.895 1363.24 232.314C1376.61 244.895 1394.59 253.62 1412.13 262.143C1416.95 264.375 1421.78 266.81 1426.38 269.042C1430.33 266.81 1434.27 264.578 1438 262.346V253.012Z" fill="white" fill-opacity="0.42"/>
<path d="M1353.59 470.538L1363.24 496.309L1372.89 470.538C1379.24 453.493 1393.06 446.391 1409.94 441.115C1409.5 439.086 1408.84 437.057 1408.4 435.028C1407.96 433.202 1407.53 431.375 1406.87 429.549C1406.43 427.926 1405.99 426.505 1405.55 424.882C1405.33 424.07 1405.11 423.462 1404.9 422.65C1389.33 427.52 1373.76 434.013 1363.02 447.406C1350.96 432.796 1333.42 426.099 1316.1 421.229C1315.01 420.824 1313.91 420.621 1312.82 420.215C1310.4 419.606 1307.77 418.794 1305.36 418.186C1302.29 417.374 1299.22 416.562 1296.37 415.751C1266.78 407.634 1242.66 396.677 1242.66 347.165C1242.66 343.309 1242.88 339.657 1243.32 336.207C1236.3 333.975 1229.73 332.352 1223.15 331.337C1222.49 336.41 1222.05 341.686 1222.05 347.368C1222.05 410.881 1258.67 425.491 1291.33 434.622C1294.18 435.434 1297.03 436.042 1299.66 436.854C1303.61 437.869 1307.34 438.883 1311.06 439.898C1330.79 445.174 1346.58 452.073 1353.59 470.538Z" fill="white" fill-opacity="0.42"/>
<path d="M1438 426.1V413.519C1436.9 413.925 1435.81 414.128 1434.93 414.533C1435.59 417.171 1436.47 420.012 1437.12 422.65C1437.34 423.665 1437.78 424.882 1438 426.1Z" fill="white" fill-opacity="0.42"/>
<path d="M1438 333.772C1398.76 362.587 1403.14 394.039 1410.16 421.23C1410.81 423.867 1411.47 426.505 1412.13 428.94C1413.23 432.593 1414.1 436.245 1414.98 439.695C1419.36 457.754 1420.9 473.988 1407.09 488.801L1387.79 509.498L1416.73 504.425C1424.63 503.005 1431.64 503.614 1438 505.237V485.554C1436.68 485.351 1435.15 484.945 1433.83 484.945C1436.03 480.278 1437.34 475.611 1438 470.944V450.247C1437.34 444.971 1436.25 439.695 1434.93 434.419C1434.71 433.405 1434.49 432.39 1434.05 431.375C1433.4 428.94 1432.74 426.708 1432.08 424.476C1431.2 421.635 1430.55 418.795 1429.89 415.954C1424.85 396.271 1422.43 378.008 1438 360.355V333.772Z" fill="white" fill-opacity="0.42"/>
<path d="M1098.4 519.847C1097.53 520.862 1096.65 521.673 1095.77 522.688C1085.69 534.254 1080.21 546.632 1076.92 559.213C1083.5 561.648 1089.85 564.489 1096.21 567.33C1098.4 556.372 1102.57 545.82 1110.46 536.283C1112 534.457 1113.75 532.428 1115.5 530.602C1118.35 527.761 1121.42 525.123 1124.93 522.485C1129.1 519.441 1133.48 516.6 1138.74 513.76C1182.59 490.221 1204.73 501.382 1226 519.238C1228.19 517.412 1230.38 515.383 1232.58 513.354C1234.33 511.731 1236.08 510.31 1237.84 508.687C1238.93 507.672 1240.03 506.86 1240.91 505.846C1216.57 485.351 1185 466.886 1128.44 497.121C1121.64 500.773 1115.72 504.628 1110.46 508.687C1106.08 512.339 1101.91 515.992 1098.4 519.847Z" fill="white" fill-opacity="0.42"/>
<path d="M1157.38 345.136C1157.38 337.831 1156.94 330.729 1156.28 323.627C1148.17 327.888 1140.28 332.352 1132.6 337.019C1113.31 348.383 1095.11 359.137 1076.7 360.355L1061.79 361.369L1068.15 373.95C1076.04 389.575 1075.16 409.46 1074.29 430.564C1073.85 440.507 1073.41 450.653 1073.85 460.798C1074.07 467.495 1074.73 473.988 1076.04 480.481C1078.45 493.468 1083.28 506.252 1092.48 518.224C1095.55 514.977 1099.06 511.527 1102.79 508.484C1104.32 507.063 1105.86 505.846 1107.61 504.628C1100.82 494.685 1097.31 483.931 1095.77 472.568C1094.9 465.668 1094.46 458.566 1094.68 451.261C1094.68 444.768 1095.11 438.072 1095.33 431.375C1096.21 413.113 1097.09 394.242 1091.83 377.4C1110.24 372.935 1127.56 362.993 1144.22 353.05C1148.39 350.412 1152.77 347.774 1157.38 345.136Z" fill="white" fill-opacity="0.42"/>
<path d="M1319.61 488.801C1306.9 475.205 1307.12 460.595 1310.62 444.362C1308.43 443.753 1306.24 443.145 1304.05 442.536C1302.07 441.927 1300.1 441.521 1298.13 440.912C1296.37 440.507 1294.84 440.101 1293.08 439.492C1292.21 439.289 1291.55 439.086 1290.67 438.883C1287.38 453.899 1285.85 469.524 1292.87 484.742C1273.13 486.975 1258.23 497.729 1245.07 509.295C1244.2 510.107 1243.32 510.716 1242.44 511.527C1240.47 513.151 1238.71 514.774 1236.96 516.6C1234.77 518.63 1232.36 520.659 1230.16 522.688C1207.58 542.371 1185.44 556.169 1138.96 531.413C1135.45 529.384 1131.95 527.558 1128.88 525.529C1123.4 529.993 1118.35 534.457 1114.19 539.124C1118.57 542.168 1123.4 545.212 1128.66 547.85C1188.07 579.707 1220.08 557.59 1245.07 535.877C1247.26 534.051 1249.24 532.225 1251.43 530.399C1254.28 527.761 1257.13 525.123 1260.2 522.688C1274.89 510.107 1289.14 500.773 1310.19 504.425L1339.12 509.498L1319.61 488.801Z" fill="white" fill-opacity="0.42"/>
<path d="M1269.63 321.8C1262.83 318.148 1256.25 315.307 1249.9 313.075C1244.41 311.249 1238.93 309.625 1233.67 308.814C1232.36 308.611 1231.04 308.408 1229.73 308.205C1213.94 305.973 1199.47 307.596 1186.1 311.452C1187.19 317.945 1187.63 324.438 1188.07 330.932C1199.47 327.076 1211.31 325.25 1224.24 326.873C1226.88 327.076 1229.51 327.685 1232.14 328.091C1236.08 328.903 1240.25 330.12 1244.41 331.54C1249.24 333.367 1254.28 335.599 1259.54 338.237C1303.39 361.775 1304.27 384.908 1298.13 410.881C1300.98 411.693 1303.83 412.504 1306.9 413.113C1309.31 413.722 1311.5 414.33 1313.91 414.939C1315.23 415.345 1316.76 415.751 1318.08 416.157C1324.87 386.531 1325.97 352.035 1269.63 321.8Z" fill="white" fill-opacity="0.42"/>
</svg>
