<?xml version="1.0" encoding="UTF-8"?>
<svg id="Layer_1" xmlns="http://www.w3.org/2000/svg" version="1.1" viewBox="0 0 513.02 329.65">
  <!-- Generator: Adobe Illustrator 29.1.0, SVG Export Plug-In . SVG Version: 2.1.0 Build 142)  -->
  <defs>
    <style>
      .st0 {
        fill: #2e404d;
      }

      .st1 {
        fill: #192b39;
      }

      .st2 {
        fill: #33edff;
      }
    </style>
  </defs>
  <polygon class="st1" points="53.51 234.55 0 202.27 0 166.24 53.51 198.52 53.51 234.55"/>
  <polygon class="st1" points="53.51 198.73 149.43 140.73 149.43 104.7 53.51 162.7 53.51 198.73"/>
  <polygon class="st0" points="53.51 127 125.64 83.51 125.64 47.48 53.51 90.98 53.51 127"/>
  <polygon class="st2" points="53.51 56.41 86.9 36.03 86.9 0 53.51 20.38 53.51 56.41"/>
  <g>
    <path class="st1" d="M195.96,226.48c0-3.49.11-5.19.11-5.39.06-2.2-.45-3.76-1.51-4.7-1.06-.93-2.66-1.4-4.79-1.4h-8.62l-1.38-.06,9.23-5.57v-4.16l-12.78,7.73v1.86h-.03s0,3.39,0,3.39h12.98c2,0,2.99.97,2.99,2.9v2.21c-.97,0-1.3-.01-1.9-.01h-15.78v3.19h21.48Z"/>
    <path class="st1" d="M349.35,253.11c-1.86-.71-3.32-1.68-4.34-2.88-1.04-1.19-1.72-2.55-2.01-4.05-.25-1.23-.41-2.51-.48-3.81v-5.79c0-6.25-5.06-11.32-11.31-11.36l-12.5-.07-54.2.02,26.22-15v-13.31l-38.43,23.24v14.48l78.63.24-.18,8.52-.03,1.1c-.08,3.96-2.56,7.41-6.16,8.58-2.37.74-5.08,1.11-8.13,1.11h-71.9c-3.36,0-5.92-.41-7.81-1.26-1.96-.89-3.45-2.07-4.36-3.5-.9-1.36-1.43-2.91-1.59-4.58-.15-1.36-.21-2.75-.21-4.12v-43.28h-12.22v43.37c0,1.56.06,2.94.18,4.22.13,1.27.29,2.47.48,3.54l.22,1.2-1,.68c-1.63,1.11-3.6,2.02-5.88,2.7-2.25.68-4.9,1.02-7.88,1.02h-34.16c-3.25,0-6.06-.36-8.36-1.08-2.44-.77-4.46-2-5.98-3.67-1.49-1.66-2.6-3.8-3.27-6.39-.54-2.05-.82-3.97-.92-6.23h-12.15c.26,8.99,2.42,15.91,6.27,20.07,4.14,4.47,10.44,6.74,18.71,6.74h39.86c2.96,0,5.74-.64,8.26-1.9,2.58-1.3,4.88-3.04,6.84-5.18l1.51-1.66,1.37,1.78c1.88,2.49,4.43,4.27,7.59,5.3,3.31,1.1,7.41,1.66,12.19,1.66h74.2c2.85,0,5.61-.66,8.41-2.01,4.51-2.17,7.13-6.44,7.16-6.48l1.07-1.78,1.58,2.24c2.34,3.33,4.82,5.45,7.37,6.34,3.26,1.12,7.35,1.7,12.17,1.7h28.29v-38.27h-12.22v28.83h-13.77c-3.04,0-5.3-.32-7.12-1.02"/>
    <path class="st1" d="M485.39,240.69v-15.39h-12.15v28.83s-9.01,0-9.01,0c-3.45,0-6.25-2.8-6.25-6.25v-22.58h-12.27v15.57c0,1.52.06,2.99.16,4.36.07,1.09.25,2.17.55,3.3l.34,1.31-1.13.74c-1.65,1.07-3.52,1.92-5.56,2.53-2.28.68-4.95,1.02-7.92,1.02h-15.12v-28.83h-12.23v33.55c0,3.32-.16,4.58-.46,6.87-.33,2.54-.95,4.65-1.86,6.28-.99,1.76-2.35,3.08-4.06,3.92-.98.48-2.12.82-3.41,1.01l3.21,8.38c10.35-.67,18.62-9.38,18.62-19.86v-1.88h15.54c3.08-.07,5.79-.73,8.24-2.03,2.27-1.2,4.4-2.85,6.34-4.9l1.52-1.6,1.34,1.75c1.89,2.44,4.43,4.18,7.55,5.17,3.36,1.07,7.49,1.61,12.27,1.61,4.03,0,5.18-1.34,8.48-3.85l1.11-.85,1.14.82c1.35.99,2.88,1.74,4.53,2.28,3.36,1.07,4.76,1.61,9.54,1.61h18.61v-38.27h-12.23v28.83h-9.15c-3.45,0-6.25-2.8-6.25-6.25v-7.19Z"/>
    <path class="st1" d="M486.39,189.62c-1.11-1.11-2.41-1.65-3.95-1.65s-2.83.54-3.91,1.64c-1.09,1.12-1.62,2.41-1.62,3.97s.53,2.83,1.62,3.91c1.07,1.09,2.36,1.61,3.91,1.61s2.84-.53,3.96-1.62c1.11-1.09,1.65-2.37,1.65-3.9s-.54-2.84-1.66-3.96"/>
    <path class="st1" d="M496,203.73c-1.11-1.11-2.4-1.66-3.96-1.66s-2.82.54-3.9,1.65c-1.09,1.12-1.62,2.41-1.62,3.96s.53,2.83,1.61,3.91c1.09,1.09,2.37,1.61,3.91,1.61s2.84-.53,3.96-1.62c1.1-1.08,1.64-2.36,1.64-3.9s-.54-2.84-1.65-3.96"/>
    <path class="st1" d="M474.26,202.07c-1.54,0-2.83.54-3.91,1.65-1.09,1.12-1.62,2.42-1.62,3.97s.53,2.82,1.61,3.91c1.09,1.09,2.37,1.61,3.92,1.61s2.86-.53,3.97-1.62c1.11-1.08,1.65-2.36,1.65-3.9s-.54-2.84-1.65-3.96c-1.12-1.11-2.41-1.65-3.96-1.65"/>
    <path class="st1" d="M375.42,274.88c-1.54,0-2.83.54-3.91,1.65-1.09,1.11-1.62,2.41-1.62,3.96s.53,2.82,1.61,3.91c1.08,1.09,2.37,1.61,3.91,1.61s2.85-.53,3.96-1.62c1.11-1.08,1.65-2.36,1.65-3.9s-.54-2.84-1.66-3.96c-1.11-1.12-2.41-1.66-3.95-1.66"/>
    <path class="st1" d="M360.3,274.88c-1.54,0-2.83.54-3.91,1.65-1.09,1.12-1.62,2.42-1.62,3.97s.53,2.82,1.61,3.91c1.09,1.09,2.37,1.61,3.92,1.61s2.84-.53,3.96-1.62c1.1-1.08,1.65-2.36,1.65-3.9s-.54-2.84-1.65-3.96c-1.11-1.11-2.41-1.65-3.95-1.65"/>
    <path class="st1" d="M139.62,320.01l5.77-1.56c.52,4.82,3.43,6.33,8.68,6.33s7.16-1.04,7.16-3.95c0-1.26-.39-2.08-1.13-2.56-.77-.44-2.34-.87-4.68-1.26l-5.99-.95c-5.94-1-8.9-3.9-8.9-8.72,0-2.69,1.18-4.86,3.47-6.51,2.3-1.61,5.33-2.43,9.08-2.43,8.15,0,13.05,3.16,13.44,9.46l-5.38,1.52c-.18-4.73-2.78-6.03-8.15-6.03-4.56,0-6.6,1-6.6,3.73,0,2.56,1.56,3.21,5.59,3.86l5.86.92c6.16,1,9.25,3.73,9.25,8.2,0,2.91-1.17,5.2-3.56,6.94-2.39,1.78-5.59,2.64-9.63,2.64-8.03,0-13.28-3.08-14.27-9.63"/>
    <path class="st1" d="M194.11,316.93v12.28h-5.51v-11.11c0-3.99-1.61-5.6-5.12-5.6-4.16,0-6.25,2.17-6.25,6.55v10.15h-5.51v-30.37h5.51v14.1c1.17-3.6,3.9-5.43,8.2-5.43,5.78,0,8.68,3.13,8.68,9.42"/>
    <path class="st1" d="M217.91,318.62c0-4.21-2.26-6.12-6.99-6.12s-6.85,1.78-6.85,6.12,1.95,6.03,6.85,6.03,6.99-1.86,6.99-6.03M217.74,307.95h5.51v21.26h-5.51v-5.25c-1.56,3.6-4.68,5.69-8.46,5.69-6.98,0-10.76-4.25-10.76-11.02s3.6-11.11,10.5-11.11c3.86,0,7.16,2.13,8.72,5.77v-5.34Z"/>
    <path class="st1" d="M246.03,307.91v5.2c-.83-.3-1.95-.43-3.39-.43-4.98,0-7.68,2.69-7.68,7.73v8.81h-5.51v-21.26h5.51v6.55c1.13-4.6,3.82-6.9,8.03-6.9,1.43,0,2.42.09,3.04.3"/>
    <path class="st1" d="M252.68,298.96c-.78,0-1.42.27-1.96.83-.55.56-.81,1.21-.81,1.98s.26,1.41.81,1.96c.54.54,1.18.8,1.96.8s1.41-.26,1.98-.81c.55-.54.82-1.18.82-1.95s-.27-1.42-.83-1.98c-.56-.56-1.2-.83-1.97-.83M249.97,307.95h5.51v21.26h-5.51v-21.26Z"/>
    <polygon class="st1" points="278.12 329.21 271.53 320.06 267.1 324.26 267.1 329.21 261.68 329.21 261.68 298.84 267.1 298.84 267.1 317.86 277.43 307.95 284.32 307.95 274.99 316.76 284.8 329.21 278.12 329.21"/>
    <path class="st1" d="M291.73,316.54h11.93c-.21-3.29-1.95-4.6-5.81-4.6s-5.64,1.43-6.13,4.6M309.05,320.32h-17.36c.47,3.34,2.3,4.73,6.42,4.73,3.42,0,4.6-.7,5.68-2.99l4.81,2.04c-1.56,3.68-5.08,5.55-10.58,5.55-3.69,0-6.6-1-8.73-2.99-2.17-1.95-3.25-4.6-3.25-7.94s1.09-6.07,3.21-8.11c2.13-2.04,4.98-3.08,8.54-3.08s6.21.95,8.24,2.91c2.04,1.95,3.04,4.6,3.04,7.85,0,.78,0,1.48-.04,2.04"/>
    <polygon class="st1" points="330.26 329.21 323.66 320.06 319.25 324.26 319.25 329.21 313.82 329.21 313.82 298.84 319.25 298.84 319.25 317.78 329.57 307.95 336.47 307.95 327.13 316.76 336.94 329.21 330.26 329.21"/>
  </g>
</svg>