<svg width="637" height="235" viewBox="0 0 637 235" fill="none" xmlns="http://www.w3.org/2000/svg">
<path d="M319.34 72.51C319.34 69.02 319.45 67.32 319.45 67.12C319.51 64.92 319 63.36 317.94 62.42C316.88 61.49 315.28 61.02 313.15 61.02H304.53L303.15 60.96L312.38 55.39V51.23L299.6 58.96V60.82H299.57V64.21H312.55C314.55 64.21 315.54 65.18 315.54 67.11V69.32C314.57 69.32 314.24 69.31 313.64 69.31H297.86V72.5H319.34V72.51Z" fill="#192B39"/>
<path d="M472.73 99.14C470.87 98.43 469.41 97.46 468.39 96.26C467.35 95.07 466.67 93.71 466.38 92.21C466.13 90.98 465.97 89.7 465.9 88.4V82.61C465.9 76.36 460.84 71.29 454.59 71.25L442.09 71.18L387.89 71.2L414.11 56.2V42.89L375.68 66.13V80.61L454.31 80.85L454.13 89.37L454.1 90.47C454.02 94.43 451.54 97.88 447.94 99.05C445.57 99.79 442.86 100.16 439.81 100.16H367.91C364.55 100.16 361.99 99.75 360.1 98.9C358.14 98.01 356.65 96.83 355.74 95.4C354.84 94.04 354.31 92.49 354.15 90.82C354 89.46 353.94 88.07 353.94 86.7V43.42H341.72V86.79C341.72 88.35 341.78 89.73 341.9 91.01C342.03 92.28 342.19 93.48 342.38 94.55L342.6 95.75L341.6 96.43C339.97 97.54 338 98.45 335.72 99.13C333.47 99.81 330.82 100.15 327.84 100.15H293.68C290.43 100.15 287.62 99.79 285.32 99.07C282.88 98.3 280.86 97.07 279.34 95.4C277.85 93.74 276.74 91.6 276.07 89.01C275.53 86.96 275.25 85.04 275.15 82.78H263C263.26 91.77 265.42 98.69 269.27 102.85C273.41 107.32 279.71 109.59 287.98 109.59H327.84C330.8 109.59 333.58 108.95 336.1 107.69C338.68 106.39 340.98 104.65 342.94 102.51L344.45 100.85L345.82 102.63C347.7 105.12 350.25 106.9 353.41 107.93C356.72 109.03 360.82 109.59 365.6 109.59H439.8C442.65 109.59 445.41 108.93 448.21 107.58C452.72 105.41 455.34 101.14 455.37 101.1L456.44 99.32L458.02 101.56C460.36 104.89 462.84 107.01 465.39 107.9C468.65 109.02 472.74 109.6 477.56 109.6H505.85V71.33H493.63V100.16H479.86C476.82 100.16 474.56 99.84 472.74 99.14" fill="#192B39"/>
<path d="M608.77 86.72V71.33H596.62V100.16H587.61C584.16 100.16 581.36 97.36 581.36 93.91V71.33H569.09V86.9C569.09 88.42 569.15 89.89 569.25 91.26C569.32 92.35 569.5 93.43 569.8 94.56L570.14 95.87L569.01 96.61C567.36 97.68 565.49 98.53 563.45 99.14C561.17 99.82 558.5 100.16 555.53 100.16H540.41V71.33H528.18V104.88C528.18 108.2 528.02 109.46 527.72 111.75C527.39 114.29 526.77 116.4 525.86 118.03C524.87 119.79 523.51 121.11 521.8 121.95C520.82 122.43 519.68 122.77 518.39 122.96L521.6 131.34C531.95 130.67 540.22 121.96 540.22 111.48V109.6H555.76C558.84 109.53 561.55 108.87 564 107.57C566.27 106.37 568.4 104.72 570.34 102.67L571.86 101.07L573.2 102.82C575.09 105.26 577.63 107 580.75 107.99C584.11 109.06 588.24 109.6 593.02 109.6C597.05 109.6 598.2 108.26 601.5 105.75L602.61 104.9L603.75 105.72C605.1 106.71 606.63 107.46 608.28 108C611.64 109.07 613.04 109.61 617.82 109.61H636.43V71.34H624.2V100.17H615.05C611.6 100.17 608.8 97.37 608.8 93.92V86.73L608.77 86.72Z" fill="#192B39"/>
<path d="M609.77 35.65C608.66 34.54 607.36 34 605.82 34C604.28 34 602.99 34.54 601.91 35.64C600.82 36.76 600.29 38.05 600.29 39.61C600.29 41.17 600.82 42.44 601.91 43.52C602.98 44.61 604.27 45.13 605.82 45.13C607.37 45.13 608.66 44.6 609.78 43.51C610.89 42.42 611.43 41.14 611.43 39.61C611.43 38.08 610.89 36.77 609.77 35.65Z" fill="#192B39"/>
<path d="M619.38 49.76C618.27 48.65 616.98 48.1 615.42 48.1C613.86 48.1 612.6 48.64 611.52 49.75C610.43 50.87 609.9 52.16 609.9 53.71C609.9 55.26 610.43 56.54 611.51 57.62C612.6 58.71 613.88 59.23 615.42 59.23C616.96 59.23 618.26 58.7 619.38 57.61C620.48 56.53 621.02 55.25 621.02 53.71C621.02 52.17 620.48 50.87 619.37 49.75" fill="#192B39"/>
<path d="M597.64 48.1C596.1 48.1 594.81 48.64 593.73 49.75C592.64 50.87 592.11 52.17 592.11 53.72C592.11 55.27 592.64 56.54 593.72 57.63C594.81 58.72 596.09 59.24 597.64 59.24C599.19 59.24 600.5 58.71 601.61 57.62C602.72 56.54 603.26 55.26 603.26 53.72C603.26 52.18 602.72 50.88 601.61 49.76C600.49 48.65 599.2 48.11 597.65 48.11" fill="#192B39"/>
<path d="M498.8 120.91C497.26 120.91 495.97 121.45 494.89 122.56C493.8 123.67 493.27 124.97 493.27 126.52C493.27 128.07 493.8 129.34 494.88 130.43C495.96 131.52 497.25 132.04 498.79 132.04C500.33 132.04 501.64 131.51 502.75 130.42C503.86 129.34 504.4 128.06 504.4 126.52C504.4 124.98 503.86 123.68 502.74 122.56C501.63 121.44 500.33 120.9 498.79 120.9" fill="#192B39"/>
<path d="M483.68 120.91C482.14 120.91 480.85 121.45 479.77 122.56C478.68 123.68 478.15 124.98 478.15 126.53C478.15 128.08 478.68 129.35 479.76 130.44C480.85 131.53 482.13 132.05 483.68 132.05C485.23 132.05 486.52 131.52 487.64 130.43C488.74 129.35 489.29 128.07 489.29 126.53C489.29 124.99 488.75 123.69 487.64 122.57C486.53 121.46 485.23 120.92 483.69 120.92" fill="#192B39"/>
<path d="M263 166.04L268.77 164.48C269.29 169.3 272.2 170.81 277.45 170.81C282.7 170.81 284.61 169.77 284.61 166.86C284.61 165.6 284.22 164.78 283.48 164.3C282.71 163.86 281.14 163.43 278.8 163.04L272.81 162.09C266.87 161.09 263.91 158.19 263.91 153.37C263.91 150.68 265.09 148.51 267.38 146.86C269.68 145.25 272.71 144.43 276.46 144.43C284.61 144.43 289.51 147.59 289.9 153.89L284.52 155.41C284.34 150.68 281.74 149.38 276.37 149.38C271.81 149.38 269.77 150.38 269.77 153.11C269.77 155.67 271.33 156.32 275.36 156.97L281.22 157.89C287.38 158.89 290.47 161.62 290.47 166.09C290.47 169 289.3 171.29 286.91 173.03C284.52 174.81 281.32 175.67 277.28 175.67C269.25 175.67 264 172.59 263.01 166.04" fill="#192B39"/>
<path d="M317.49 162.96V175.24H311.98V164.13C311.98 160.14 310.37 158.53 306.86 158.53C302.7 158.53 300.61 160.7 300.61 165.08V175.23H295.1V144.86H300.61V158.96C301.78 155.36 304.51 153.53 308.81 153.53C314.59 153.53 317.49 156.66 317.49 162.95" fill="#192B39"/>
<path d="M341.29 164.65C341.29 160.44 339.03 158.53 334.3 158.53C329.57 158.53 327.45 160.31 327.45 164.65C327.45 168.99 329.4 170.68 334.3 170.68C339.2 170.68 341.29 168.82 341.29 164.65ZM341.12 153.98H346.63V175.24H341.12V169.99C339.56 173.59 336.44 175.68 332.66 175.68C325.68 175.68 321.9 171.43 321.9 164.66C321.9 157.89 325.5 153.55 332.4 153.55C336.26 153.55 339.56 155.68 341.12 159.32V153.98Z" fill="#192B39"/>
<path d="M369.41 153.94V159.14C368.58 158.84 367.46 158.71 366.02 158.71C361.04 158.71 358.34 161.4 358.34 166.44V175.25H352.83V153.99H358.34V160.54C359.47 155.94 362.16 153.64 366.37 153.64C367.8 153.64 368.79 153.73 369.41 153.94Z" fill="#192B39"/>
<path d="M376.06 144.99C375.28 144.99 374.64 145.26 374.1 145.82C373.55 146.38 373.29 147.03 373.29 147.8C373.29 148.57 373.55 149.21 374.1 149.76C374.64 150.3 375.28 150.56 376.06 150.56C376.84 150.56 377.47 150.3 378.04 149.75C378.59 149.21 378.86 148.57 378.86 147.8C378.86 147.03 378.59 146.38 378.03 145.82C377.47 145.26 376.83 144.99 376.06 144.99ZM373.35 153.98H378.86V175.24H373.35V153.98Z" fill="#192B39"/>
<path d="M401.5 175.24L394.91 166.09L390.48 170.29V175.24H385.06V144.87H390.48V163.89L400.81 153.98H407.7L398.37 162.79L408.18 175.24H401.5Z" fill="#192B39"/>
<path d="M415.11 162.57H427.04C426.83 159.28 425.09 157.97 421.23 157.97C417.37 157.97 415.59 159.4 415.1 162.57M432.43 166.35H415.07C415.54 169.69 417.37 171.08 421.49 171.08C424.91 171.08 426.09 170.38 427.17 168.09L431.98 170.13C430.42 173.81 426.9 175.68 421.4 175.68C417.71 175.68 414.8 174.68 412.67 172.69C410.5 170.74 409.42 168.09 409.42 164.75C409.42 161.41 410.51 158.68 412.63 156.64C414.76 154.6 417.61 153.56 421.17 153.56C424.73 153.56 427.38 154.51 429.41 156.47C431.45 158.42 432.45 161.07 432.45 164.32C432.45 165.1 432.45 165.8 432.41 166.36" fill="#192B39"/>
<path d="M453.64 175.24L447.04 166.09L442.63 170.29V175.24H437.2V144.87H442.63V163.81L452.95 153.98H459.85L450.51 162.79L460.32 175.24H453.64Z" fill="#192B39"/>
<path d="M53.51 234.55L0 202.27V166.24L53.51 198.52V234.55Z" fill="#192B39"/>
<path d="M53.51 198.73L149.43 140.73V104.7L53.51 162.7V198.73Z" fill="#192B39"/>
<path d="M53.51 127L125.64 83.51V47.48L53.51 90.98V127Z" fill="#2E404D"/>
<path d="M53.51 56.41L86.9 36.03V0L53.51 20.38V56.41Z" fill="#33EDFF"/>
</svg>
