<svg width="32" height="32" viewBox="0 0 32 32" fill="none" xmlns="http://www.w3.org/2000/svg">
<path d="M7.25 1V4.75M24.75 1V4.75M1 27.25V8.5C1 6.42893 2.67893 4.75 4.75 4.75H27.25C29.3211 4.75 31 6.42893 31 8.5V27.25M1 27.25C1 29.3211 2.67893 31 4.75 31H27.25C29.3211 31 31 29.3211 31 27.25M1 27.25V14.75C1 12.6789 2.67893 11 4.75 11H27.25C29.3211 11 31 12.6789 31 14.75V27.25M16 17.25H16.0125V17.2625H16V17.25ZM16 21H16.0125V21.0125H16V21ZM16 24.75H16.0125V24.7625H16V24.75ZM12.25 21H12.2625V21.0125H12.25V21ZM12.25 24.75H12.2625V24.7625H12.25V24.75ZM8.5 21H8.5125V21.0125H8.5V21ZM8.5 24.75H8.5125V24.7625H8.5V24.75ZM19.75 17.25H19.7625V17.2625H19.75V17.25ZM19.75 21H19.7625V21.0125H19.75V21ZM19.75 24.75H19.7625V24.7625H19.75V24.75ZM23.5 17.25H23.5125V17.2625H23.5V17.25ZM23.5 21H23.5125V21.0125H23.5V21Z" stroke="#1F2937" stroke-width="1.5" stroke-linecap="round" stroke-linejoin="round"/>
</svg>
