<svg width="30" height="30" viewBox="0 0 30 30" fill="none" xmlns="http://www.w3.org/2000/svg">
<path d="M17.6872 14.843C21.7794 14.843 25.1081 11.5137 25.1081 7.42151C25.1081 3.32931 21.7794 0 17.6872 0C13.595 0 10.2657 3.32931 10.2657 7.42151C10.2657 11.5137 13.595 14.843 17.6872 14.843ZM16.8083 3.05919V2.85763C16.8083 2.37188 17.2014 1.97872 17.6872 1.97872C18.1724 1.97872 18.5661 2.37188 18.5661 2.85763V3.06036C19.612 3.28478 20.3989 4.21642 20.3989 5.32853C20.3989 5.81369 20.0052 6.20744 19.52 6.20744C19.0343 6.20744 18.6411 5.81369 18.6411 5.32853C18.6411 5.01857 18.3886 4.76603 18.0786 4.76603H17.2905C16.9806 4.76603 16.728 5.01857 16.728 5.32853C16.728 5.50607 16.813 5.67482 16.9559 5.78029L17.6872 6.3217L19.4638 7.63655C20.0474 8.06838 20.3989 8.75921 20.4036 9.48577V9.49397C20.4077 10.1139 20.1704 10.6987 19.7345 11.1399C19.411 11.4674 19.0067 11.6871 18.5661 11.7797V11.9854C18.5661 12.4711 18.1724 12.8643 17.6872 12.8643C17.2014 12.8643 16.8083 12.4711 16.8083 11.9854V11.7827C16.3794 11.6912 15.985 11.4803 15.6663 11.1651C15.2251 10.7297 14.9802 10.1485 14.9766 9.52855C14.9737 9.04339 15.3645 8.64729 15.8497 8.64436H15.8555C16.3384 8.64436 16.7315 9.0346 16.7345 9.518C16.7356 9.82134 16.9797 10.077 17.2999 10.077C17.7855 10.0741 17.6046 10.0751 18.0868 10.0723C18.3988 10.0698 18.6482 9.81665 18.6458 9.50569V9.49749C18.6446 9.32171 18.5597 9.15413 18.4179 9.04925L17.6872 8.50843L15.91 7.19358C15.3218 6.75764 14.9702 6.06037 14.9702 5.32853C14.9702 4.21408 15.7595 3.28185 16.8083 3.05919Z" fill="#396AFF"/>
<path d="M5.66251 19.066C5.43721 18.6754 4.93676 18.5395 4.54377 18.7662L0.409502 21.1528C0.018036 21.3793 -0.116261 21.88 0.109736 22.272L4.33518 29.5905C4.56135 29.9819 5.06174 30.1163 5.45391 29.8903L9.58818 27.5032C9.98024 27.2771 10.114 26.7764 9.88795 26.3844L5.66251 19.066Z" fill="#396AFF"/>
<path d="M29.3514 17.6051C28.9536 17.0526 28.1836 16.9278 27.6317 17.3257C25.9571 18.5321 22.7414 20.8489 22.486 21.0335C22.3682 21.1337 22.2446 21.2245 22.1157 21.3048C21.61 21.6229 21.0235 21.7929 20.4112 21.7929H16.2012C15.716 21.7929 15.3223 21.3997 15.3223 20.9139C15.3223 20.4276 15.7166 20.035 16.2012 20.035H20.7035C21.3651 20.035 21.8948 19.4843 21.8672 18.8216C21.8414 18.1928 21.3047 17.7053 20.6754 17.7053H17.2483C17.0162 17.4598 16.7619 17.2348 16.4895 17.0339C15.5525 16.343 14.3947 15.9346 13.1414 15.9346C10.9131 15.9346 8.69589 17.3385 7.77655 19.2124L11.3719 25.4392H18.116C19.4403 25.4392 20.7446 25.1005 21.8924 24.4401C22.2903 24.2116 22.7162 23.9368 23.178 23.6052C25.1127 22.2153 29.0684 19.3278 29.0713 19.326C29.6245 18.9288 29.7499 18.1577 29.3514 17.6051Z" fill="#396AFF"/>
</svg>
