<svg width="30" height="30" viewBox="0 0 30 30" fill="none" xmlns="http://www.w3.org/2000/svg">
<path d="M15.879 15.8783V0C7.37387 0.446115 0.446847 7.37308 0.000732422 15.8783H15.879ZM12.3635 13.2416H10.6058V11.4839H12.3635V13.2416ZM7.09029 7.96842H8.84803V9.72616H7.09029V7.96842ZM11.4846 7.60451L12.7274 8.84729L7.96916 13.6056L6.72637 12.3628L11.4846 7.60451Z" fill="#FF82AC"/>
<path d="M15.879 17.636H5.36609C5.79439 23.2371 10.278 27.7207 15.8791 28.149V17.636H15.879Z" fill="#FF82AC"/>
<path d="M17.6366 3.5155C17.6366 3.70428 17.6366 30.2063 17.6366 29.9988C24.496 29.5432 29.9994 23.6423 29.9994 16.6694C29.9994 9.6959 24.4977 3.96953 17.6366 3.5155ZM22.9098 15.8783C24.3637 15.8783 25.5464 17.061 25.5464 18.5149C25.5464 19.6592 24.8095 20.6256 23.7887 20.9896V22.9092H22.031V20.9896C21.0102 20.6256 20.2732 19.6592 20.2732 18.5149H22.031C22.031 18.9998 22.4249 19.3938 22.9098 19.3938C23.3947 19.3938 23.7887 18.9998 23.7887 18.5149C23.7887 18.03 23.3947 17.636 22.9098 17.636C21.4559 17.636 20.2732 16.4533 20.2732 14.9994C20.2732 13.8551 21.0102 12.8887 22.031 12.5247V10.6051H23.7887V12.5247C24.8095 12.8887 25.5464 13.8551 25.5464 14.9994H23.7887C23.7887 14.5145 23.3947 14.1205 22.9098 14.1205C22.4249 14.1205 22.031 14.5145 22.031 14.9994C22.031 15.4843 22.4249 15.8783 22.9098 15.8783Z" fill="#FF82AC"/>
</svg>
