<svg width="28" height="30" viewBox="0 0 28 30" fill="none" xmlns="http://www.w3.org/2000/svg">
<path d="M24.1322 0C22.4163 0 21.0253 1.39102 21.0253 3.10693V12.3773H26.3602C26.8456 12.3773 27.2391 11.9838 27.2391 11.4984V3.10693C27.2391 1.39102 25.8481 0 24.1322 0V0Z" fill="#FF82AC"/>
<path d="M9.62656 22.0898C9.62656 16.7805 13.9456 12.4076 19.326 12.4223V3.48551C19.326 2.14857 19.8293 0.927129 20.6559 0H5.15404C2.73177 0 0.760681 1.97109 0.760681 4.39336V29.1053C0.760681 29.8959 1.72789 30.2844 2.27474 29.7129L3.39916 28.5387L4.58685 29.727C4.92963 30.0697 5.48627 30.0697 5.82963 29.727L6.95521 28.602L8.09193 29.7293C8.4347 30.0691 8.98724 30.0691 9.33002 29.7293L10.4849 28.5844L11.6404 29.7293C11.9826 30.0691 12.5345 30.0691 12.8773 29.7299L13.1011 29.5084C10.9219 27.6864 9.62656 24.9923 9.62656 22.0898ZM7.8708 7.08984H9.60541V5.35523C9.60541 4.86984 9.99892 4.47633 10.4843 4.47633C10.9697 4.47633 11.3632 4.86984 11.3632 5.35523V7.08984H13.0978C13.5832 7.08984 13.9767 7.48336 13.9767 7.96875C13.9767 8.45414 13.5832 8.84766 13.0978 8.84766H11.3632V10.5823C11.3632 11.0677 10.9697 11.4612 10.4843 11.4612C9.99892 11.4612 9.60541 11.0677 9.60541 10.5823V8.84766H7.8708C7.38541 8.84766 6.99189 8.45414 6.99189 7.96875C6.99189 7.48336 7.38541 7.08984 7.8708 7.08984ZM5.21082 13.2451H11.1288C11.6142 13.2451 12.0078 13.6386 12.0078 14.124C12.0078 14.6094 11.6142 15.0029 11.1288 15.0029H5.21082C4.72543 15.0029 4.33191 14.6094 4.33191 14.124C4.33191 13.6386 4.72543 13.2451 5.21082 13.2451ZM8.14343 22.0283H5.20496C4.71957 22.0283 4.32605 21.6348 4.32605 21.1494C4.32605 20.664 4.71957 20.2705 5.20496 20.2705H8.14343C8.62883 20.2705 9.02234 20.664 9.02234 21.1494C9.02234 21.6348 8.62883 22.0283 8.14343 22.0283ZM8.72943 18.5186H5.20783C4.72244 18.5186 4.32892 18.125 4.32892 17.6396C4.32892 17.1543 4.72244 16.7607 5.20783 16.7607H8.72943C9.21482 16.7607 9.60834 17.1543 9.60834 17.6396C9.60834 18.125 9.21482 18.5186 8.72943 18.5186Z" fill="#FF82AC"/>
<path d="M19.2946 14.1797C14.9329 14.1797 11.3844 17.7282 11.3844 22.0898C11.3844 26.4515 14.9329 30 19.2946 30C23.6562 30 27.2047 26.4515 27.2047 22.0898C27.2047 17.7282 23.6562 14.1797 19.2946 14.1797ZM20.1762 25.4747V25.5583C20.1762 26.0437 19.7827 26.4372 19.2973 26.4372C18.8119 26.4372 18.4184 26.0437 18.4184 25.5583V25.5434C18.0247 25.4496 17.6594 25.2945 17.3698 25.105C16.9636 24.8392 16.8497 24.2946 17.1155 23.8883C17.3812 23.482 17.9259 23.3682 18.3322 23.634C18.6919 23.8693 19.2848 23.9587 19.5763 23.8216C19.7651 23.7327 19.9113 23.543 19.9316 23.3603C19.9751 22.9712 19.3654 22.7541 19.0014 22.6103C18.4505 22.3927 17.7648 22.1219 17.3668 21.4033C16.7994 20.3791 17.2963 19.0287 18.4184 18.5669V18.5227C18.4184 18.0373 18.8119 17.6437 19.2973 17.6437C19.7779 17.6437 20.1678 18.0296 20.1755 18.5084C20.4919 18.6073 20.7833 18.7655 21.0166 18.9807C21.3735 19.3098 21.3959 19.8658 21.0668 20.2226C20.7377 20.5795 20.1816 20.6019 19.8248 20.2728C19.6803 20.1394 19.2347 20.0856 19.041 20.2156C18.9108 20.3031 18.8598 20.4709 18.9044 20.5514C19.09 20.8865 20.0621 21.0013 20.7977 21.5746C22.3005 22.7457 21.7776 24.8604 20.1762 25.4747Z" fill="#FF82AC"/>
</svg>
