<svg width="20" height="21" viewBox="0 0 20 21" fill="none" xmlns="http://www.w3.org/2000/svg">
<path d="M13.125 14.0132V15.8882M6.875 10.2632H6.88125V10.2694H6.875V10.2632ZM6.875 12.1382H6.88125V12.1444H6.875V12.1382ZM6.875 14.0132H6.88125V14.0194H6.875V14.0132ZM6.875 15.8882H6.88125V15.8944H6.875V15.8882ZM8.9563 10.2632H8.96255V10.2694H8.9563V10.2632ZM8.9563 12.1382H8.96255V12.1444H8.9563V12.1382ZM8.9563 14.0132H8.96255V14.0194H8.9563V14.0132ZM8.9563 15.8882H8.96255V15.8944H8.9563V15.8882ZM11.0437 10.2632H11.05V10.2694H11.0437V10.2632ZM11.0437 12.1382H11.05V12.1444H11.0437V12.1382ZM11.0437 14.0132H11.05V14.0194H11.0437V14.0132ZM11.0437 15.8882H11.05V15.8944H11.0437V15.8882ZM13.125 10.2632H13.1313V10.2694H13.125V10.2632ZM13.125 12.1382H13.1313V12.1444H13.125V12.1382ZM6.875 5.88818H13.125V7.76318H6.875V5.88818ZM10 2.76318C8.42333 2.76318 6.86797 2.85441 5.3389 3.03186C4.42173 3.1383 3.75 3.92902 3.75 4.85234V17.1382C3.75 18.1737 4.58947 19.0132 5.625 19.0132H14.375C15.4105 19.0132 16.25 18.1737 16.25 17.1382V4.85234C16.25 3.92902 15.5783 3.1383 14.6611 3.03186C13.132 2.85441 11.5767 2.76318 10 2.76318Z" stroke="#1F2937" stroke-width="1.5" stroke-linecap="round" stroke-linejoin="round"/>
</svg>
