<svg width="35" height="35" viewBox="0 0 35 35" fill="none" xmlns="http://www.w3.org/2000/svg">
<path d="M22.9688 22.9688V26.25M12.0312 16.4062H12.0422V16.4172H12.0312V16.4062ZM12.0312 19.6875H12.0422V19.6984H12.0312V19.6875ZM12.0312 22.9688H12.0422V22.9797H12.0312V22.9688ZM12.0312 26.25H12.0422V26.2609H12.0312V26.25ZM15.6735 16.4062H15.6845V16.4172H15.6735V16.4062ZM15.6735 19.6875H15.6845V19.6984H15.6735V19.6875ZM15.6735 22.9688H15.6845V22.9797H15.6735V22.9688ZM15.6735 26.25H15.6845V26.2609H15.6735V26.25ZM19.3265 16.4062H19.3374V16.4172H19.3265V16.4062ZM19.3265 19.6875H19.3374V19.6984H19.3265V19.6875ZM19.3265 22.9688H19.3374V22.9797H19.3265V22.9688ZM19.3265 26.25H19.3374V26.2609H19.3265V26.25ZM22.9688 16.4062H22.9797V16.4172H22.9688V16.4062ZM22.9688 19.6875H22.9797V19.6984H22.9688V19.6875ZM12.0312 8.75H22.9688V12.0312H12.0312V8.75ZM17.5 3.28125C14.7408 3.28125 12.0189 3.44089 9.34308 3.75143C7.73803 3.9377 6.5625 5.32146 6.5625 6.93727V28.4375C6.5625 30.2497 8.03157 31.7188 9.84375 31.7188H25.1562C26.9684 31.7188 28.4375 30.2497 28.4375 28.4375V6.93727C28.4375 5.32146 27.262 3.9377 25.6569 3.75143C22.9811 3.44089 20.2592 3.28125 17.5 3.28125Z" stroke="#1F2937" stroke-width="1.5" stroke-linecap="round" stroke-linejoin="round"/>
</svg>
