<svg width="133" height="116" viewBox="0 0 133 116" fill="none" xmlns="http://www.w3.org/2000/svg">
<path d="M65.8468 29.4314C66.66 25.6052 70.4903 22.5035 74.4019 22.5035H122.8C128.015 22.5035 131.364 26.6391 130.28 31.7407L113.894 108.83C113.081 112.656 109.25 115.758 105.339 115.758H54.5801C50.6685 115.758 48.1568 112.656 48.9701 108.83L65.8468 29.4314Z" fill="#177848"/>
<rect width="64.9239" height="93.8446" rx="7.08261" transform="matrix(1 0 -0.207912 0.978148 65.5513 22.5035)" fill="#41C985"/>
<rect width="64.9239" height="93.8446" rx="7.08261" transform="matrix(1 0 -0.207912 0.978148 64.9604 22.5035)" fill="#1DA260"/>
<g clip-path="url(#clip0_879_1577)">
<rect width="59.6119" height="86.1717" rx="4.72174" transform="matrix(1 0 -0.207912 0.978148 63.1541 23.6841)" fill="#D9D9EB"/>
<g clip-path="url(#clip1_879_1577)">
<line y1="-0.147554" x2="50.1685" y2="-0.147554" transform="matrix(1 0 -0.207912 0.978148 65.0527 36.9624)" stroke="#177848" stroke-width="0.295109"/>
<line y1="-0.147554" x2="50.1685" y2="-0.147554" transform="matrix(1 0 -0.207912 0.978148 63.7029 43.3129)" stroke="#177848" stroke-width="0.295109"/>
<line y1="-0.147554" x2="50.1685" y2="-0.147554" transform="matrix(1 0 -0.207912 0.978148 62.353 49.6635)" stroke="#177848" stroke-width="0.295109"/>
<line y1="-0.147554" x2="50.1685" y2="-0.147554" transform="matrix(1 0 -0.207912 0.978148 61.0032 56.0139)" stroke="#177848" stroke-width="0.295109"/>
<line y1="-0.147554" x2="50.1685" y2="-0.147554" transform="matrix(1 0 -0.207912 0.978148 59.6533 62.3644)" stroke="#177848" stroke-width="0.295109"/>
<line y1="-0.147554" x2="50.1685" y2="-0.147554" transform="matrix(-0.207912 0.978148 -1 -4.27562e-08 111.834 25.1275)" stroke="#177848" stroke-width="0.295109"/>
<line y1="-0.147554" x2="50.1685" y2="-0.147554" transform="matrix(-0.207912 0.978148 -1 -4.27562e-08 105.342 25.1275)" stroke="#177848" stroke-width="0.295109"/>
<line y1="-0.147554" x2="50.1685" y2="-0.147554" transform="matrix(-0.207912 0.978148 -1 -4.27562e-08 98.8494 25.1275)" stroke="#177848" stroke-width="0.295109"/>
<line y1="-0.147554" x2="50.1685" y2="-0.147554" transform="matrix(-0.207912 0.978148 -1 -4.27562e-08 92.3572 25.1274)" stroke="#177848" stroke-width="0.295109"/>
<line y1="-0.147554" x2="50.1685" y2="-0.147554" transform="matrix(-0.207912 0.978148 -1 -4.27562e-08 85.8647 25.1275)" stroke="#177848" stroke-width="0.295109"/>
<line y1="-0.147554" x2="50.1685" y2="-0.147554" transform="matrix(-0.207912 0.978148 -1 -4.27562e-08 79.3723 25.1275)" stroke="#177848" stroke-width="0.295109"/>
<line y1="-0.147554" x2="50.1685" y2="-0.147554" transform="matrix(-0.207912 0.978148 -1 -4.27562e-08 72.8801 25.1274)" stroke="#177848" stroke-width="0.295109"/>
</g>
<rect width="26.5598" height="2.36087" transform="matrix(1 0 -0.207912 0.978148 57.5667 72.1789)" fill="#1DA260"/>
<rect width="36.5935" height="2.36087" transform="matrix(1 0 -0.207912 0.978148 56.3408 77.9521)" fill="#1DA260"/>
<rect width="50.1685" height="2.36087" transform="matrix(1 0 -0.207912 0.978148 55.1118 83.7253)" fill="#1DA260"/>
</g>
<g clip-path="url(#clip2_879_1577)">
<rect width="59.6119" height="86.1717" rx="4.72174" transform="matrix(1 0 -0.207912 0.978148 61.9719 22.5037)" fill="#F7F7FF"/>
<g clip-path="url(#clip3_879_1577)">
<line y1="-0.147554" x2="50.1685" y2="-0.147554" transform="matrix(1 0 -0.207912 0.978148 63.8718 35.7817)" stroke="#177848" stroke-width="0.295109"/>
<line y1="-0.147554" x2="50.1685" y2="-0.147554" transform="matrix(1 0 -0.207912 0.978148 62.522 42.1323)" stroke="#177848" stroke-width="0.295109"/>
<line y1="-0.147554" x2="50.1685" y2="-0.147554" transform="matrix(1 0 -0.207912 0.978148 61.1721 48.4829)" stroke="#177848" stroke-width="0.295109"/>
<line y1="-0.147554" x2="50.1685" y2="-0.147554" transform="matrix(1 0 -0.207912 0.978148 59.8223 54.8333)" stroke="#177848" stroke-width="0.295109"/>
<line y1="-0.147554" x2="50.1685" y2="-0.147554" transform="matrix(1 0 -0.207912 0.978148 58.4727 61.184)" stroke="#177848" stroke-width="0.295109"/>
<line y1="-0.147554" x2="50.1685" y2="-0.147554" transform="matrix(-0.207912 0.978148 -1 -4.27562e-08 110.653 23.9466)" stroke="#177848" stroke-width="0.295109"/>
<line y1="-0.147554" x2="50.1685" y2="-0.147554" transform="matrix(-0.207912 0.978148 -1 -4.27562e-08 104.161 23.9467)" stroke="#177848" stroke-width="0.295109"/>
<line y1="-0.147554" x2="50.1685" y2="-0.147554" transform="matrix(-0.207912 0.978148 -1 -4.27562e-08 97.6685 23.9467)" stroke="#177848" stroke-width="0.295109"/>
<line y1="-0.147554" x2="50.1685" y2="-0.147554" transform="matrix(-0.207912 0.978148 -1 -4.27562e-08 91.1763 23.9467)" stroke="#177848" stroke-width="0.295109"/>
<line y1="-0.147554" x2="50.1685" y2="-0.147554" transform="matrix(-0.207912 0.978148 -1 -4.27562e-08 84.6838 23.9466)" stroke="#177848" stroke-width="0.295109"/>
<line y1="-0.147554" x2="50.1685" y2="-0.147554" transform="matrix(-0.207912 0.978148 -1 -4.27562e-08 78.1912 23.9467)" stroke="#177848" stroke-width="0.295109"/>
<line y1="-0.147554" x2="50.1685" y2="-0.147554" transform="matrix(-0.207912 0.978148 -1 -4.27562e-08 71.699 23.9467)" stroke="#177848" stroke-width="0.295109"/>
</g>
<rect width="26.5598" height="2.36087" rx="1.18043" transform="matrix(1 0 -0.207912 0.978148 56.3862 70.9983)" fill="#1DA260"/>
<rect width="36.5935" height="2.36087" rx="1.18043" transform="matrix(1 0 -0.207912 0.978148 55.1592 76.7715)" fill="#1DA260"/>
<rect width="50.1685" height="2.36087" rx="1.18043" transform="matrix(1 0 -0.207912 0.978148 53.9314 82.5444)" fill="#1DA260"/>
<rect width="52.5293" height="52.5293" rx="26.2647" transform="matrix(0.978148 -0.207912 -0.190809 0.981627 41.2612 28.0651)" fill="black" fill-opacity="0.2"/>
</g>
<g clip-path="url(#clip4_879_1577)">
<rect width="52.5293" height="52.5293" rx="26.2647" transform="matrix(0.978148 -0.207912 -0.190809 0.981627 38.3093 13.2345)" fill="#FF8D23"/>
<rect width="42.4956" height="42.4956" rx="21.2478" transform="matrix(0.978148 -0.207912 -0.190809 0.981627 41.0981 15.9742)" fill="white"/>
<rect width="33.0522" height="33.0522" rx="16.5261" transform="matrix(0.978148 -0.207912 -0.190809 0.981627 44.8167 19.6278)" fill="#FFA450"/>
<rect width="23.6087" height="23.6087" rx="11.8043" transform="matrix(0.978148 -0.207912 -0.190809 0.981627 48.5337 23.2808)" fill="white"/>
<rect width="11.8043" height="11.8043" rx="5.90217" transform="matrix(0.978148 -0.207912 -0.190809 0.981627 53.1814 27.8476)" fill="#FFA450"/>
</g>
<g clip-path="url(#clip5_879_1577)">
<rect width="51.9391" height="51.9391" rx="25.9696" transform="matrix(0.978148 -0.207912 -0.190809 0.981627 37.0466 11.7463)" fill="#FFCB9B"/>
<rect width="42.4956" height="42.4956" rx="21.2478" transform="matrix(0.978148 -0.207912 -0.190809 0.981627 40.7654 15.3995)" fill="white"/>
<rect width="33.0522" height="33.0522" rx="16.5261" transform="matrix(0.978148 -0.207912 -0.190809 0.981627 44.4829 19.0529)" fill="#FFA450"/>
<rect width="23.6087" height="23.6087" rx="11.8043" transform="matrix(0.978148 -0.207912 -0.190809 0.981627 48.1997 22.7058)" fill="white"/>
<rect width="11.8043" height="11.8043" rx="5.90217" transform="matrix(0.978148 -0.207912 -0.190809 0.981627 52.8469 27.2729)" fill="#FFA450"/>
</g>
<rect width="51.9391" height="51.9391" rx="25.9696" transform="matrix(0.978148 -0.207912 -0.190809 0.981627 36.4709 11.869)" fill="#FFA450"/>
<rect width="42.4956" height="42.4956" rx="21.2478" transform="matrix(0.978148 -0.207912 -0.190809 0.981627 40.188 15.5222)" fill="white"/>
<rect width="33.0522" height="33.0522" rx="16.5261" transform="matrix(0.978148 -0.207912 -0.190809 0.981627 43.9048 19.1754)" fill="#FFA450"/>
<rect width="23.6087" height="23.6087" rx="11.8043" transform="matrix(0.978148 -0.207912 -0.190809 0.981627 47.6223 22.8284)" fill="white"/>
<rect width="11.8043" height="11.8043" rx="5.90217" transform="matrix(0.978148 -0.207912 -0.190809 0.981627 52.2693 27.3952)" fill="#FFA450"/>
<rect width="2.49661" height="2.49661" rx="1.2483" transform="matrix(0.978148 -0.207912 -0.190809 0.981627 55.3652 31.8756)" fill="#824B18"/>
<g filter="url(#filter0_f_879_1577)">
<path d="M48.9868 57.9166L55.7743 32.8324L56.6596 32.8324L52.233 57.3264L48.9868 57.9166Z" fill="black" fill-opacity="0.2"/>
</g>
<path d="M48.5645 32.8326L50.6205 28.3092L55.9664 32.8326L48.5645 32.8326Z" fill="#1DA260"/>
<path d="M8.26538 7.74835L50.6207 29.5428L49.7967 30.7765L8.26538 9.39322L8.26538 7.74835Z" fill="black"/>
<line x1="9.13339" y1="9.30161" x2="49.4326" y2="29.8625" stroke="white" stroke-width="0.205608"/>
<path d="M48.5645 32.8328L51.0318 27.4869L56.3776 32.8328L48.5645 32.8328Z" fill="#177848"/>
<path d="M48.5645 32.8326L50.6205 28.3092L55.9664 32.8326L48.5645 32.8326Z" fill="#1DA260"/>
<path d="M55.5557 32.8326L49.3875 31.1877L50.2099 29.954L55.5557 32.8326Z" fill="#177848"/>
<path d="M15.2154 12.817L15.9582 11.412L7.00952 0.667894L6.58587 7.44858L-0.00037824 13.5745L15.2154 12.817Z" fill="#177848"/>
<path d="M6.47459 11.2949L7.07983 8.39147L15.6341 11.6745L15.3457 12.4702L6.47459 11.2949Z" fill="#41C985"/>
<path d="M6.79742 11.0324L7.43384 7.83556L15.6397 11.8799L15.5388 12.5547L6.79742 11.0324Z" fill="#1DA260"/>
<path d="M6.02939 7.09285L16.1885 12.0302L4.46857 7.81733L6.02939 7.09285Z" fill="black"/>
<defs>
<filter id="filter0_f_879_1577" x="46.6259" y="30.4715" width="12.3946" height="29.806" filterUnits="userSpaceOnUse" color-interpolation-filters="sRGB">
<feFlood flood-opacity="0" result="BackgroundImageFix"/>
<feBlend mode="normal" in="SourceGraphic" in2="BackgroundImageFix" result="shape"/>
<feGaussianBlur stdDeviation="1.18043" result="effect1_foregroundBlur_879_1577"/>
</filter>
<clipPath id="clip0_879_1577">
<rect width="59.6119" height="86.1717" rx="4.72174" transform="matrix(1 0 -0.207912 0.978148 63.1541 23.6841)" fill="white"/>
</clipPath>
<clipPath id="clip1_879_1577">
<rect width="50.1685" height="33.6424" fill="white" transform="matrix(1 0 -0.207912 0.978148 65.9106 32.9213)"/>
</clipPath>
<clipPath id="clip2_879_1577">
<rect width="59.6119" height="86.1717" rx="4.72174" transform="matrix(1 0 -0.207912 0.978148 61.9719 22.5037)" fill="white"/>
</clipPath>
<clipPath id="clip3_879_1577">
<rect width="50.1685" height="33.6424" fill="white" transform="matrix(1 0 -0.207912 0.978148 64.7319 31.7404)"/>
</clipPath>
<clipPath id="clip4_879_1577">
<rect width="52.5293" height="52.5293" rx="26.2647" transform="matrix(0.978148 -0.207912 -0.190809 0.981627 38.3093 13.2345)" fill="white"/>
</clipPath>
<clipPath id="clip5_879_1577">
<rect width="51.9391" height="51.9391" rx="25.9696" transform="matrix(0.978148 -0.207912 -0.190809 0.981627 37.0466 11.7463)" fill="white"/>
</clipPath>
</defs>
</svg>
