<svg width="55" height="55" viewBox="0 0 55 55" fill="none" xmlns="http://www.w3.org/2000/svg">
<g filter="url(#filter0_d_857_2244)">
<path d="M10 0.5C6.96243 0.5 4.5 2.96243 4.5 6V41C4.5 44.0376 6.96243 46.5 10 46.5H45C48.0376 46.5 50.5 44.0376 50.5 41V6C50.5 2.96243 48.0376 0.5 45 0.5H10Z" stroke="black"/>
<path d="M19.1301 20.6499C18.4577 19.4421 17.168 18.625 15.6875 18.625C13.5129 18.625 11.75 20.3879 11.75 22.5625C11.75 24.7371 13.5129 26.5 15.6875 26.5C17.168 26.5 18.4577 25.6829 19.1301 24.4751M19.1301 20.6499C19.4454 21.2162 19.625 21.8684 19.625 22.5625C19.625 23.2566 19.4454 23.9088 19.1301 24.4751M19.1301 20.6499L35.8699 11.3501M19.1301 24.4751L35.8699 33.7749M35.8699 33.7749C35.5546 34.3412 35.375 34.9934 35.375 35.6875C35.375 37.8621 37.1379 39.625 39.3125 39.625C41.4871 39.625 43.25 37.8621 43.25 35.6875C43.25 33.5129 41.4871 31.75 39.3125 31.75C37.832 31.75 36.5423 32.5671 35.8699 33.7749ZM35.8699 11.3501C36.5423 12.5579 37.832 13.375 39.3125 13.375C41.4871 13.375 43.25 11.6121 43.25 9.4375C43.25 7.26288 41.4871 5.5 39.3125 5.5C37.1379 5.5 35.375 7.26288 35.375 9.4375C35.375 10.1316 35.5546 10.7838 35.8699 11.3501Z" stroke="white" stroke-width="1.5" stroke-linecap="round" stroke-linejoin="round"/>
</g>
<defs>
<filter id="filter0_d_857_2244" x="0" y="0" width="55" height="55" filterUnits="userSpaceOnUse" color-interpolation-filters="sRGB">
<feFlood flood-opacity="0" result="BackgroundImageFix"/>
<feColorMatrix in="SourceAlpha" type="matrix" values="0 0 0 0 0 0 0 0 0 0 0 0 0 0 0 0 0 0 127 0" result="hardAlpha"/>
<feOffset dy="4"/>
<feGaussianBlur stdDeviation="2"/>
<feComposite in2="hardAlpha" operator="out"/>
<feColorMatrix type="matrix" values="0 0 0 0 0 0 0 0 0 0 0 0 0 0 0 0 0 0 0.25 0"/>
<feBlend mode="normal" in2="BackgroundImageFix" result="effect1_dropShadow_857_2244"/>
<feBlend mode="normal" in="SourceGraphic" in2="effect1_dropShadow_857_2244" result="shape"/>
</filter>
</defs>
</svg>
